<?xml version="1.0" encoding="utf-8"?>
<svg style="height: 512px; width: 512px;" viewBox="0 0 512 512" xmlns="http://www.w3.org/2000/svg" width="512" height="512">
  <defs>
    <linearGradient x1="0" x2="0" y1="0" y2="1" id="lorc-high-shot-gradient-0">
      <stop offset="0" stop-color="#b9b9b9" stop-opacity="1"/>
      <stop offset="1" stop-color="#666666" stop-opacity="1"/>
    </linearGradient>
  </defs>
  <rect fill="url(#lorc-high-shot-gradient-0)" height="512" width="512" rx="64" ry="64"/>
  <g class="" style="" transform="matrix(0.876335, 0, 0, 0.876335, 27.801624, 31.453114)">
    <path d="M492.656 20.406l-118.594 56.22L413.875 86l-86.97 86.97-305.5 259.374.69.687 104.75-47.467-46.376 105.843.905.906 272.5-319.875 73.22-73.218 9.342 39.81 56.22-118.624zm-473.25.063c-1.347 23.43 5 39.947 16.563 52.218l24.093 302.28 17.562-14.874-21.72-272.438c57.975 31.954 169.096 25.165 216.907 106.72l66.625-56.564 1.22-1.218C292.74 38.666 86.01 99.716 19.406 20.47zm359.531 151.56l-1.156 1.157-57.25 67.188c82.006 47.945 75.587 159.267 107.283 218.03l-272.157-24.5-14.812 17.408 301.562 27.125c12.48 12.283 29.4 19.084 53.688 17.687-79.95-67.2-18.36-275.754-117.156-324.094z" fill="#ffffff" fill-opacity="1"/>
  </g>
</svg>