<?xml version="1.0" encoding="utf-8"?>
<svg style="height: 512px; width: 512px;" viewBox="0 0 512 512" xmlns="http://www.w3.org/2000/svg" width="512" height="512">
  <defs>
    <linearGradient x1="0" x2="0" y1="0" y2="1" id="lorc-scythe-gradient-0">
      <stop offset="0" stop-color="#b9b9b9" stop-opacity="1"/>
      <stop offset="1" stop-color="#666666" stop-opacity="1"/>
    </linearGradient>
  </defs>
  <rect fill="url(#lorc-scythe-gradient-0)" height="512" width="512" rx="64" ry="64"/>
  <g class="" style="" transform="translate(0,0)">
    <path d="M296.625 25.406c-63.794.388-135.81 14.683-206.03 32.844-3.472 34.08 2.226 68.906 14.03 104.25C181.175 75.936 393.65 44.825 486.72 128 456.02 50.466 384.046 24.874 296.624 25.406zM65.655 61.438L27.906 71c5.643 78.022 28.546 132.393 60.44 174.47-16.54 10.348-40.693 19.673-68.782 26.843 5.664 6.597 14.25 16.18 30.53 18.53 24.846-4.33 39.912-14.982 53.75-26.593 76.24 85.145 190.22 118.955 253.126 224.22l49.436-.126C290.996 275.316 81.01 364.804 65.656 61.438z" fill="#ffffff" fill-opacity="1"/>
  </g>
</svg>