<?xml version="1.0" encoding="utf-8"?>
<svg style="height: 512px; width: 512px;" viewBox="0 0 512 512" xmlns="http://www.w3.org/2000/svg" width="512" height="512">
  <defs>
    <linearGradient x1="0" x2="0" y1="0" y2="1" id="lorc-sewing-needle-gradient-0">
      <stop offset="0" stop-color="#b9b9b9" stop-opacity="1"/>
      <stop offset="1" stop-color="#666666" stop-opacity="1"/>
    </linearGradient>
  </defs>
  <rect fill="url(#lorc-sewing-needle-gradient-0)" height="512" width="512" rx="64" ry="64"/>
  <g class="" style="" transform="matrix(0.830481, -0.26984, 0.26984, 0.830481, -24.365219, 118.700684)">
    <path d="M 63.113 21.977 C 62.663 21.972 62.215 21.991 61.765 22.005 C 61.166 22.028 60.566 22.068 59.968 22.126 C 52.812 22.817 45.899 26.101 38.59 32.787 C 29.022 41.534 26.264 49.71 27.66 59.348 C 29.054 68.983 35.663 80.655 47.902 92.796 C 50.676 95.548 53.772 98.293 57.095 101.061 C 58.311 102.072 59.553 103.102 60.838 104.113 C 61.913 104.959 63.01 105.814 64.132 106.659 C 64.355 106.826 64.568 107.002 64.792 107.169 C 80.263 118.704 100.24 130.107 123.901 140.59 C 276.955 295.165 400.657 425.719 482.855 478.012 C 433.879 395.963 303.249 272.353 147.469 118.16 C 137.666 95.353 127.786 79.973 92.399 35.695 C 83.296 28.28 75.011 23.274 67.217 22.278 C 65.834 22.101 64.466 21.991 63.113 21.978 L 63.113 21.977 Z" fill="#ffffff" fill-opacity="1" style=""/>
    <path d="M 69.553 20.813 C 70.905 20.826 72.273 20.936 73.656 21.113 C 81.45 22.11 89.735 27.116 98.838 34.53 C 134.225 78.808 144.105 94.188 153.908 116.996 C 193.868 156.548 232.173 194.089 267.869 229.432 C 246.421 223.75 224.478 217.992 202.083 212.144 C 178.967 188.681 155.035 164.366 130.34 139.425 C 106.679 128.942 86.702 117.539 71.231 106.004 C 71.007 105.837 70.794 105.662 70.571 105.494 C 69.449 104.65 68.352 103.794 67.277 102.949 C 65.992 101.938 64.75 100.907 63.534 99.896 C 60.211 97.129 57.115 94.383 54.341 91.631 C 42.102 79.49 35.493 67.819 34.099 58.183 C 32.703 48.545 35.461 40.369 45.029 31.622 C 52.338 24.936 59.251 21.652 66.407 20.962 C 67.005 20.904 67.605 20.863 68.204 20.841 C 68.654 20.826 69.102 20.807 69.553 20.812 L 69.553 20.813 Z M 489.293 476.847 C 434.299 441.86 360.724 371.839 272.209 283.03 C 295.1 289.216 317.448 295.191 339.218 300.915 C 408.371 371.405 461.747 430.699 489.293 476.847 Z" fill="#ffffff" fill-opacity="1" style="" transform="matrix(0.866025, 0.500001, -0.500001, 0.866025, 159.452738, -97.426289)"/>
  </g>
</svg>