<?xml version="1.0" encoding="utf-8"?>
<svg style="height: 512px; width: 512px;" viewBox="0 0 512 512" xmlns="http://www.w3.org/2000/svg" width="512" height="512">
  <defs>
    <linearGradient x1="0" x2="0" y1="0" y2="1" id="delapouite-brick-wall-gradient-0">
      <stop offset="0" stop-color="#b9b9b9" stop-opacity="1"/>
      <stop offset="1" stop-color="#666666" stop-opacity="1"/>
    </linearGradient>
  </defs>
  <rect fill="url(#delapouite-brick-wall-gradient-0)" height="512" width="512" rx="64" ry="64"/>
  <g class="" style="" transform="matrix(0.949625, 0, 0, 0.949625, 12.528485, 11.101752)">
    <path d="M494 18.02l-101 .103V119h101zm-119 .12l-238 .247V119h238zm-256 .266L18 18.51V119h101zM18 137v110h229V137zm247 0v110h229V137zM18 265v110h101V265zm119 0v110h238V265zm256 0v110h101V265zM18 393v100.98l229-.236V393zm247 0v100.727l229-.237V393z" fill="#ffffff" fill-opacity="1"/>
  </g>
</svg>