<?xml version="1.0" encoding="utf-8"?>
<svg style="height: 512px; width: 512px;" viewBox="0 0 512 512" xmlns="http://www.w3.org/2000/svg" width="512" height="512">
  <defs>
    <linearGradient x1="0" x2="0" y1="0" y2="1" id="lorc-kitchen-knives-gradient-0">
      <stop offset="0" stop-color="#b9b9b9" stop-opacity="1"/>
      <stop offset="1" stop-color="#666666" stop-opacity="1"/>
    </linearGradient>
  </defs>
  <rect fill="url(#lorc-kitchen-knives-gradient-0)" height="512" width="512" rx="64" ry="64"/>
  <g class="" style="" transform="matrix(1.087537, 0, 0, 1.087537, -16.163383, -30.411886)">
    <path d="M 80.487 81.537 L 55.612 113.973 C 106.444 142.455 152.57 177.266 193.112 219.38 L 217.955 187.005 L 80.485 81.537 L 80.487 81.537 Z M 230.172 201.787 L 211.486 226.162 C 214.906 242.902 210.953 261.747 193.111 285.005 C 270.871 344.66 342.256 406.709 445.641 433.535 C 392.969 351.963 326.666 281.497 230.171 201.785 L 230.172 201.787 Z" fill="#ffffff" fill-opacity="1" transform="matrix(0.104528, -0.994522, 0.994522, 0.104528, -31.696292, 479.869693)"/>
  </g>
</svg>