<?xml version="1.0" encoding="utf-8"?>
<svg style="height: 512px; width: 512px;" viewBox="0 0 512 512" xmlns="http://www.w3.org/2000/svg" width="512" height="512">
  <defs>
    <linearGradient x1="0" x2="0" y1="0" y2="1" id="lorc-scalpel-gradient-0">
      <stop offset="0" stop-color="#b9b9b9" stop-opacity="1"/>
      <stop offset="1" stop-color="#666666" stop-opacity="1"/>
    </linearGradient>
  </defs>
  <rect fill="url(#lorc-scalpel-gradient-0)" height="512" width="512" rx="64" ry="64"/>
  <g class="" style="" transform="translate(0,0)">
    <path d="M486.594 19.438l-212.53 169.468c11.276 6.004 20.268 16.362 25.436 28.156 1.943 4.434 3.305 9.2 4 14.094 80.446 34.536 191.193-106.27 183.094-211.72zM252.03 202.125c-1.268.034-2.38.253-4.53.75-4.932 1.14-8.54 2.213-12.03 5L18.22 382.063v27.78l233.218-184.937 11.625 14.656L18.22 433.656v32.53l255.81-204.155c13.41-10.704 14.012-24.534 8.345-37.467-5.662-12.923-18.25-22.68-30.313-22.438h-.03z" fill="#ffffff" fill-opacity="1"/>
  </g>
</svg>