<?xml version="1.0" encoding="utf-8"?>
<svg style="height: 512px; width: 512px;" viewBox="0 0 512 512" xmlns="http://www.w3.org/2000/svg" width="512" height="512">
  <defs>
    <linearGradient x1="0" x2="0" y1="0" y2="1" id="lorc-meat-cleaver-gradient-0">
      <stop offset="0" stop-color="#b9b9b9" stop-opacity="1"/>
      <stop offset="1" stop-color="#666666" stop-opacity="1"/>
    </linearGradient>
  </defs>
  <rect fill="url(#lorc-meat-cleaver-gradient-0)" height="512" width="512" rx="64" ry="64"/>
  <g class="" style="" transform="translate(0,0)">
    <path d="M312.813 24.313L88.5 282.938l65.563 95.718c90.372-68.07 182.097-177.937 254.843-295.844l-96.094-58.5zm9.125 30.03c2.658.03 4.815.813 6.562 2 3.494 2.376 6.438 7.41 6.438 16.376 0 17.928-14.45 41.012-29.657 48.124-7.603 3.555-12.692 2.844-16.186.47-3.494-2.377-6.47-7.412-6.47-16.376 0-17.93 14.48-41.014 29.688-48.126 3.803-1.777 6.967-2.5 9.625-2.468zm102.937 38.188c-73.88 119.784-166.747 231.365-260.25 301.564l42.53 62.125c93.965-68.158 219.3-202.6 281.564-324.845L424.874 92.53zM73.5 294.126c-17.832 17.12-35.684 32.712-53.563 46.844V461.56c27.78-33.634 57.404-75.49 87.75-117.53L73.5 294.124z" fill="#ffffff" fill-opacity="1"/>
  </g>
</svg>