<?xml version="1.0" encoding="utf-8"?>
<svg style="height: 512px; width: 512px;" viewBox="0 0 512 512" xmlns="http://www.w3.org/2000/svg" width="512" height="512">
  <defs>
    <linearGradient x1="0" x2="0" y1="0" y2="1" id="skoll-butterfly-knife-gradient-0">
      <stop offset="0" stop-color="#b9b9b9" stop-opacity="1"/>
      <stop offset="1" stop-color="#666666" stop-opacity="1"/>
    </linearGradient>
  </defs>
  <rect fill="url(#skoll-butterfly-knife-gradient-0)" height="512" width="512" rx="64" ry="64"/>
  <g class="" style="" transform="translate(0,0)">
    <path d="M311.96 258.5L105.55 484l-30-28.31L288.92 236.7zM139.77 417.7a7.41 7.41 0 1 0 .3 10.47 7.41 7.41 0 0 0-.3-10.47zm23.74-25.14a7.41 7.41 0 1 0 .3 10.47 7.41 7.41 0 0 0-.29-10.44zm23.76-25.11a7.41 7.41 0 1 0 .3 10.47 7.41 7.41 0 0 0-.3-10.47zm23.74-25.15a7.41 7.41 0 1 0 .3 10.47 7.41 7.41 0 0 0-.3-10.47zm23.76-25.14a7.41 7.41 0 1 0 .3 10.47 7.41 7.41 0 0 0-.3-10.47zm23.74-25.14a7.41 7.41 0 1 0 .3 10.47 7.41 7.41 0 0 0-.31-10.47zm23.74-25.14a7.41 7.41 0 1 0 .3 10.47 7.41 7.41 0 0 0-.3-10.47zM52.67 433.13l-28.26-30 225.85-206 21.71 23.02zm36.9-63.05a7.41 7.41 0 1 0-.32 10.47 7.41 7.41 0 0 0 .33-10.47zm25.2-23.7a7.41 7.41 0 1 0-.32 10.47 7.41 7.41 0 0 0 .32-10.47zm25.17-23.68a7.41 7.41 0 1 0-.32 10.47 7.41 7.41 0 0 0 .32-10.47zm25.18-23.7a7.41 7.41 0 1 0-.32 10.47 7.41 7.41 0 0 0 .32-10.5zm25.18-23.7a7.41 7.41 0 1 0-.32 10.47 7.41 7.41 0 0 0 .32-10.5zm25.18-23.7a7.41 7.41 0 1 0-.32 10.47 7.41 7.41 0 0 0 .32-10.51zm25.18-23.7a7.41 7.41 0 1 0-.32 10.47 7.41 7.41 0 0 0 .32-10.51zm63.89 1.63c12.87-10.8 25.09-20.92 37-30.79C425.04 129.57 475.68 87.63 487.59 28c-8.36 6.7-63.45 50.38-92.82 58.58l-114 119.47z" fill="#ffffff" fill-opacity="1"/>
  </g>
</svg>