<?xml version="1.0" encoding="utf-8"?>
<svg style="height: 512px; width: 512px;" viewBox="0 0 512 512" width="512" height="512" xmlns="http://www.w3.org/2000/svg">
  <defs>
    <linearGradient x1="0" x2="0" y1="0" y2="1" id="skoll-revolver-gradient-0">
      <stop offset="0" stop-color="#b9b9b9" stop-opacity="1"/>
      <stop offset="1" stop-color="#666666" stop-opacity="1"/>
    </linearGradient>
  </defs>
  <rect fill="url(#skoll-revolver-gradient-0)" height="512" width="512" rx="64" ry="64"/>
  <g class="" style="" transform="matrix(1, 0, 0, 1, -3.492798, 0)">
    <path d="M 183.259 156.072 C 181.209 155.211 179.119 154.446 176.997 153.782 C 175.428 153.306 173.817 152.85 172.144 152.48 C 170.458 152.106 168.758 151.801 167.047 151.568 C 165.342 151.349 163.627 151.222 161.908 151.187 L 159.397 151.187 C 158.571 151.187 157.755 151.282 156.96 151.357 C 155.441 151.507 153.933 151.755 152.446 152.098 C 151.133 152.395 149.842 152.777 148.579 153.243 C 147.403 153.635 146.385 154.143 145.485 154.535 C 144.585 154.927 143.853 155.393 143.249 155.743 L 141.405 156.919 L 143.525 156.474 C 144.203 156.358 145.029 156.262 145.951 156.135 C 146.873 156.008 147.932 155.976 149.13 156.019 C 150.339 156.024 151.546 156.109 152.743 156.273 C 154.058 156.446 155.361 156.704 156.643 157.046 C 157.299 157.226 157.967 157.396 158.634 157.64 C 159.302 157.883 159.959 158.095 160.626 158.37 C 161.954 158.901 163.252 159.502 164.515 160.172 C 165.775 160.861 167.015 161.582 168.181 162.365 C 169.346 163.15 170.301 163.817 171.254 164.559 C 174.616 160.919 178.706 158.027 183.259 156.072 Z M 377.886 195.615 C 377.886 199.711 374.566 203.032 370.469 203.032 L 358.756 203.032 L 358.756 186.079 L 377.886 186.079 L 377.886 195.615 Z M 153.475 207.365 C 112.692 234.395 76.264 320.422 80.28 377.862 L 178.82 377.862 C 178.82 377.862 160.913 306.478 185.495 282.977 C 185.877 282.617 186.279 282.277 186.693 281.917 C 197.659 262.432 197.871 244.355 187.063 229.288 C 177.453 215.863 162.259 208.87 153.475 207.366 L 153.475 207.365 Z M 140.442 344.855 C 140.443 354.643 129.847 360.761 121.37 355.868 C 112.893 350.975 112.892 338.74 121.369 333.845 C 123.302 332.729 125.495 332.141 127.727 332.141 C 134.749 332.141 140.442 337.834 140.442 344.856 L 140.442 344.855 Z M 443.676 134.276 C 445.495 133.684 447.36 135.044 447.353 136.956 L 447.353 169.126 L 358.788 169.126 L 358.788 143.77 L 414.261 143.77 L 443.676 134.276 Z M 178.162 198.91 L 178.003 198.91 C 186.953 204.084 194.729 211.062 200.837 219.402 C 215.162 239.344 213.615 259.825 207.926 275.984 C 213.308 276.206 217.992 277.679 220.153 280.402 C 230.719 293.879 246.894 301.751 264.019 301.752 C 287.256 301.752 309.231 287.109 312.506 260.249 C 321.183 258.554 328.186 252.156 330.656 243.667 L 341.813 205.352 L 341.813 136.48 L 211.888 136.48 L 211.888 143.717 L 200.837 143.717 L 200.837 169.56 C 173.288 169.613 178.12 198.91 178.12 198.91 L 178.162 198.91 Z M 308.5 160.395 C 308.499 165.076 304.705 168.87 300.024 168.871 L 244.46 168.871 C 237.935 168.8 233.933 161.692 237.257 156.077 C 238.766 153.527 241.497 151.95 244.46 151.918 L 300.024 151.918 C 304.705 151.919 308.5 155.714 308.5 160.395 Z M 308.5 184.765 C 308.499 189.446 304.705 193.24 300.024 193.241 L 244.46 193.241 C 237.935 193.17 233.933 186.062 237.257 180.447 C 238.766 177.897 241.497 176.32 244.46 176.288 L 300.024 176.288 C 304.705 176.289 308.5 180.084 308.5 184.765 Z M 300.024 217.082 L 244.46 217.082 C 237.935 217.153 233.78 210.133 236.981 204.447 C 238.499 201.75 241.366 200.095 244.46 200.129 L 300.024 200.129 C 306.549 200.2 310.551 207.308 307.227 212.923 C 305.718 215.473 302.987 217.05 300.024 217.082 Z M 228.948 260.524 C 228.948 246.4 237.424 245.203 249.715 245.574 C 249.98 246.856 250.277 248.18 250.637 249.537 C 251.071 251.115 251.537 252.715 252.12 254.337 C 252.703 255.957 253.35 257.515 254.06 259.137 C 254.783 260.698 255.589 262.219 256.475 263.693 C 256.899 264.423 257.355 265.123 257.831 265.812 C 258.308 266.5 258.785 267.147 259.273 267.782 C 260.208 268.991 261.22 270.138 262.303 271.216 C 263.253 272.171 264.266 273.063 265.333 273.886 C 266.287 274.67 267.262 275.263 268.067 275.814 C 268.872 276.365 269.667 276.746 270.281 277.064 L 272.263 278.007 L 270.758 276.45 C 270.303 275.941 269.773 275.295 269.18 274.574 C 268.519 273.765 267.93 272.9 267.42 271.989 C 266.782 270.968 266.213 269.906 265.715 268.81 C 265.162 267.602 264.687 266.36 264.295 265.091 C 264.094 264.434 263.892 263.777 263.744 263.089 C 263.596 262.399 263.415 261.722 263.299 260.969 C 263.044 259.567 262.863 258.152 262.759 256.731 C 262.659 255.321 262.627 253.906 262.663 252.493 C 262.705 251.115 262.79 249.706 262.917 248.371 C 263.002 247.576 263.097 246.814 263.204 246.061 L 264.369 246.061 C 283.929 246.061 299.78 241.261 299.78 260.535 C 299.772 287.799 270.253 304.83 246.646 291.191 C 235.69 284.861 228.943 273.167 228.947 260.514 L 228.948 260.524 Z" fill="#ffffff" fill-opacity="1"/>
  </g>
</svg>