<?xml version="1.0" encoding="utf-8"?>
<svg style="height: 512px; width: 512px;" viewBox="0 0 512 512" xmlns="http://www.w3.org/2000/svg" width="512" height="512">
  <defs>
    <linearGradient x1="0" x2="0" y1="0" y2="1" id="lorc-thrown-spear-gradient-0">
      <stop offset="0" stop-color="#b9b9b9" stop-opacity="1"/>
      <stop offset="1" stop-color="#666666" stop-opacity="1"/>
    </linearGradient>
  </defs>
  <rect fill="url(#lorc-thrown-spear-gradient-0)" height="512" width="512" rx="64" ry="64"/>
  <g class="" style="" transform="matrix(0.934377, 0, 0, 0.934377, 5.11995, 4.249019)">
    <path d="M248.25 16.688C124.165 17.31-57.308 93.192 51.22 374.563 12.847 60.82 305.093 126.845 394.47 336.469l-76.564-281-2.562-9.47 9.437-2.656 17.94-5.063c-14.344-12.722-50.85-21.812-94.47-21.593zm112.688 37.03l-21.344 6.032L422 362.25l-29.625 4.813 94.063 127.718 7.53-144.186-22.156 3.594-110.875-300.47z" fill="#ffffff" fill-opacity="1"/>
  </g>
</svg>