<?xml version="1.0" encoding="utf-8"?>
<svg style="height: 512px; width: 512px;" viewBox="0 0 512 512" xmlns="http://www.w3.org/2000/svg" width="512" height="512">
  <defs>
    <linearGradient x1="0" x2="0" y1="0" y2="1" id="quoting-trench-assault-gradient-0">
      <stop offset="0" stop-color="#b9b9b9" stop-opacity="1"/>
      <stop offset="1" stop-color="#666666" stop-opacity="1"/>
    </linearGradient>
  </defs>
  <rect fill="url(#quoting-trench-assault-gradient-0)" height="512" width="512" rx="64" ry="64"/>
  <g class="" style="" transform="matrix(1, 0, 0, 1, 0, -28.655674)">
    <path d="M302.938 103.787c-23.987-.107-49.665 9.404-71.407 31.096-48.334 50.449-60.164 116.385-37.379 194.633 21.796-78.993 53.341-198.239 136.471-154.493l-9.123 12.061c30.507 6.372 54.311 12.258 86.596 28.725-.523-38.412-8.753-65.834-34.053-98.596l-9.846 13.191c-14.977-16.782-37.273-26.51-61.26-26.617zm-3.987 17.387c10.942-.013 21.9 3.616 32.992 12.084l7.52-8.201c16.57 12.638 43.555 44.235 50.14 60.67-17.066-9.68-55.53-27.887-75.624-30.309l8.496-11.486c-54.848-22.199-116.854 54.451-126.016 134.734-8.795-44.906 29.853-120.103 54.25-137.832 16.294-11.84 32.25-19.64 48.242-19.66zm32.692 144.484v.385l-.293-.102-54.805 156.497h-127.36C130.06 372.15 111.268 317.793 93.11 265.94c-31.168-.21-48.539-.279-66.425-.267.113 66.096-.09 114.682-.09 174.828H493.63c-.108-58.181-.067-116.53-.067-174.813v-.03h-24.289l-6.08 7.47 9.514 32.185c-11.608-4.645-21.012-7.902-31.424-12.044l-27.781 18.972 1.793-33.52-17.031-13.064c-23.55-.024-46.218.005-66.623 0zM26.609 468.014c-1.071 6.018-.398 11.988 0 18.03h467.006v-18.03z" fill="#ffffff" fill-opacity="1"/>
  </g>
</svg>