<?xml version="1.0" encoding="utf-8"?>
<svg style="height: 512px; width: 512px;" viewBox="0 0 512 512" xmlns="http://www.w3.org/2000/svg" width="512" height="512">
  <defs>
    <linearGradient x1="0" x2="0" y1="0" y2="1" id="delapouite-armor-punch-gradient-0">
      <stop offset="0" stop-color="#b9b9b9" stop-opacity="1"/>
      <stop offset="1" stop-color="#666666" stop-opacity="1"/>
    </linearGradient>
  </defs>
  <rect fill="url(#delapouite-armor-punch-gradient-0)" height="512" width="512" rx="64" ry="64"/>
  <g class="" style="" transform="translate(0,0)">
    <path d="M 35.579 92.256 C 58.319 149.556 58.149 198.756 65.729 248.456 C 121.229 262.756 178.429 290.856 227.329 315.956 C 240.829 274.456 266.629 233.856 288.829 198.756 C 215.629 153.756 122.729 117.856 35.579 92.256 Z M 304.029 208.456 C 281.329 244.456 255.829 285.256 243.529 324.256 C 251.929 328.456 260.029 332.656 267.729 336.656 C 276.829 295.256 305.029 259.156 329.229 226.056 C 321.229 220.056 312.829 214.156 304.029 208.456 Z M 352.029 224.956 C 325.329 262.956 293.229 302.056 284.929 343.156 L 327.229 346.156 C 338.729 327.856 355.029 325.156 374.829 323.056 C 378.629 332.556 401.329 349.956 409.029 354.456 C 413.929 352.356 418.529 349.456 423.629 346.156 C 431.229 360.856 443.729 372.256 454.229 382.256 C 457.929 373.456 460.729 364.056 462.929 354.456 C 455.029 353.756 447.129 345.756 444.529 339.856 C 441.629 332.756 441.129 324.356 442.929 315.556 C 445.529 307.056 449.229 298.656 454.529 293.156 C 425.229 268.056 391.529 243.856 352.029 224.956 Z M 467.229 305.056 C 464.529 307.856 461.929 312.456 460.729 318.156 C 460.229 322.856 458.829 335.256 465.529 336.656 C 472.329 335.156 476.229 326.656 477.629 320.656 C 478.829 314.956 478.229 309.856 476.929 306.456 C 474.229 300.556 470.529 301.956 467.229 305.056 Z M 368.329 343.856 C 358.329 344.056 346.729 347.256 344.929 355.356 C 350.129 373.756 371.929 384.756 384.929 395.156 C 385.129 385.556 385.929 374.556 391.229 364.456 C 382.529 358.156 375.229 350.756 368.329 343.856 Z M 285.229 361.256 C 290.829 375.956 299.229 386.656 309.729 399.756 C 323.529 396.456 331.029 389.056 337.529 381.256 C 331.929 375.156 327.529 369.756 323.429 363.956 L 285.229 361.256 Z M 417.629 370.356 C 414.329 371.856 410.729 373.156 406.829 374.056 C 403.729 381.856 403.829 392.656 403.029 404.056 L 440.429 394.456 C 432.529 387.356 423.829 379.656 417.629 370.356 Z M 349.429 394.856 C 343.529 401.456 335.629 408.756 324.429 413.656 C 337.229 425.056 388.429 429.356 384.029 419.556 C 370.429 411.556 358.729 403.756 349.429 394.856 Z" fill="#ffffff" fill-opacity="1"/>
  </g>
</svg>