<?xml version="1.0" encoding="utf-8"?>
<svg style="height: 512px; width: 512px;" viewBox="0 0 512 512" xmlns="http://www.w3.org/2000/svg" width="512" height="512">
  <polygon points="477.7,384,256,512,34.3,384,34.3,128,256,0,477.7,128" fill="#ffffff" fill-opacity="1"/>
  <g class="" style="" transform="translate(0,0)">
    <path d="M 256 86.668 C 165.149 86.668 91.5 160.317 91.5 251.168 C 91.5 295.233 108.825 335.25 137.035 364.78 C 73.128 398.917 209.214 385.568 256 385.568 C 302.665 385.568 433.44 404.58 395.243 347.294 C 415.464 311.683 420.5 295.354 420.5 251.168 C 420.5 205.785 402.121 164.696 372.401 134.934 L 322.618 164.45 L 344.189 112.286 C 318.7 96.068 288.449 86.668 256 86.668 Z M 256 144.068 C 315.075 144.068 363.1 192.093 363.1 251.168 C 363.1 310.243 315.075 358.268 256 358.268 C 196.925 358.268 148.9 310.243 148.9 251.168 C 148.9 192.093 196.925 144.068 256 144.068 Z M 256 156.668 C 241.708 156.668 228.17 159.832 216.037 165.49 C 224.12 188.506 237.953 217.568 256 217.568 C 274.076 217.568 287.448 188.413 295.726 165.38 C 283.653 159.792 270.199 156.668 256 156.668 Z M 325.126 186.684 C 305.727 201.484 282.327 223.637 287.907 240.813 C 293.494 258.008 325.363 261.714 349.829 262.468 C 350.268 258.763 350.5 254.994 350.5 251.168 C 350.5 226.219 340.871 203.56 325.126 186.684 Z M 186.716 186.854 C 171.064 203.711 161.5 226.302 161.5 251.168 C 161.5 255.053 161.738 258.881 162.192 262.641 C 186.575 262.064 218.458 257.886 224.032 240.731 C 229.614 223.552 206.056 201.844 186.716 186.854 Z M 235.848 217.405 C 231 217.543 228.12 222.878 230.664 227.006 C 230.748 227.142 230.836 227.275 230.93 227.404 C 233.78 231.328 239.809 230.695 241.782 226.266 C 243.67 222.027 240.485 217.272 235.848 217.405 Z M 276.152 217.405 C 271.305 217.266 268.125 222.427 270.428 226.695 C 272.633 230.777 278.343 231.158 281.07 227.404 C 283.919 223.48 281.453 217.942 276.63 217.436 C 276.471 217.42 276.312 217.409 276.152 217.405 Z M 256 228.768 C 243.629 228.768 233.6 238.797 233.6 251.168 C 233.6 263.539 243.629 273.568 256 273.568 C 268.371 273.568 278.4 263.539 278.4 251.168 C 278.4 238.797 268.371 228.768 256 228.768 Z M 223.592 255.394 C 219.35 255.455 216.379 259.606 217.69 263.641 C 218.765 266.95 222.319 268.761 225.628 267.686 C 230.24 266.188 231.501 260.258 227.898 257.013 C 226.718 255.949 225.18 255.372 223.592 255.394 Z M 288.065 255.398 C 283.219 255.592 280.4 260.959 282.991 265.059 C 285.582 269.158 291.639 268.916 293.894 264.623 C 295.709 261.167 293.977 256.909 290.265 255.702 C 289.555 255.471 288.81 255.368 288.065 255.398 Z M 224.091 274.799 C 208.978 274.872 188.923 286.581 173.394 297.149 C 186.715 321.066 210.116 338.563 237.895 343.934 C 244.888 320.561 250.789 288.902 236.182 278.291 C 232.785 275.822 228.666 274.777 224.091 274.799 Z M 287.802 274.813 C 283.196 274.813 279.058 275.874 275.66 278.342 C 261.034 288.969 267.356 320.417 274.199 343.917 C 301.979 338.516 325.374 320.985 338.669 297.036 C 323.264 286.379 303.014 274.813 287.802 274.812 L 287.802 274.813 Z M 256 278.874 C 251.15 278.874 248.119 284.124 250.544 288.324 C 251.669 290.274 253.75 291.474 256 291.474 C 260.85 291.474 263.881 286.224 261.456 282.024 C 260.331 280.075 258.25 278.874 256 278.874 Z" fill="#000000" fill-opacity="1"/>
  </g>
</svg>