<?xml version="1.0" encoding="utf-8"?>
<svg style="height: 512px; width: 512px;" viewBox="0 0 512 512" xmlns="http://www.w3.org/2000/svg" width="512" height="512">
  <polygon points="477.7,384,256,512,34.3,384,34.3,128,256,0,477.7,128" fill="#ffffff" fill-opacity="1"/>
  <g class="" style="" transform="translate(0,0)">
    <path d="M82.64 48.26a51.94 51.94 0 0 0-51.68 51.94 51.94 51.94 0 0 0 42.2 50.9v209.7a51.94 51.94 0 0 0-42.2 51 51.94 51.94 0 0 0 51.94 51.9 51.94 51.94 0 0 0 51.9-51.9 51.94 51.94 0 0 0-42.15-51v-95.1H246.2v95.1a51.94 51.94 0 0 0-42.2 51 51.94 51.94 0 0 0 52 51.9 51.94 51.94 0 0 0 51.9-51.9 51.94 51.94 0 0 0-42.2-51v-95.1H438.8V151.1a51.94 51.94 0 0 0 42.2-50.9 51.94 51.94 0 0 0-51.9-51.94 51.94 51.94 0 0 0-.2 0 51.94 51.94 0 0 0-51.7 51.94 51.94 51.94 0 0 0 42.2 50.9v95.1H265.7v-95.1a51.94 51.94 0 0 0 42.2-50.9A51.94 51.94 0 0 0 256 48.26a51.94 51.94 0 0 0-.2 0A51.94 51.94 0 0 0 204 100.2a51.94 51.94 0 0 0 42.2 50.9v95.1H92.65v-95.1a51.94 51.94 0 0 0 42.15-50.9 51.94 51.94 0 0 0-51.9-51.94 51.94 51.94 0 0 0-.26 0z" fill="#000000" fill-opacity="1" transform="translate(76.8, 76.8) scale(0.7, 0.7) rotate(0, 256, 256) skewX(0) skewY(0)"/>
  </g>
</svg>