<?xml version="1.0" encoding="utf-8"?>
<svg style="height: 512px; width: 512px;" viewBox="0 0 512 512" xmlns="http://www.w3.org/2000/svg" width="512" height="512">
  <polygon points="477.7,384,256,512,34.3,384,34.3,128,256,0,477.7,128" fill="#ffffff" fill-opacity="1"/>
  <g class="" style="" transform="matrix(1, 0, 0, 1, 0, 25.849865)">
    <path d="M 256.97 41.688 C 240.893 41.688 226.073 50.148 214.75 65.031 C 203.427 79.917 196.094 101.083 196.094 124.657 C 196.094 148.232 203.426 169.397 214.75 184.282 C 226.074 199.168 240.893 207.658 256.97 207.658 C 273.044 207.658 287.895 199.168 299.22 184.283 C 310.542 169.399 317.875 148.233 317.875 124.659 C 317.875 101.085 310.542 79.919 299.219 65.034 C 287.894 50.151 273.044 41.691 256.969 41.691 L 256.97 41.688 Z M 222.437 120.625 L 241.125 120.625 L 241.125 166 L 222.437 166 L 222.437 120.625 Z M 273.157 120.625 L 291.844 120.625 L 291.844 166 L 273.156 166 L 273.156 120.625 L 273.157 120.625 Z M 64.687 127.625 L 21.657 248.5 C 21.647 248.535 21.634 248.56 21.625 248.594 C 19.205 257.869 20.738 264.279 24 269.25 C 27.274 274.24 32.77 277.87 39.063 279.438 C 45.356 281.004 52.206 280.416 57.75 277.625 C 63.294 274.835 67.805 270.125 70.188 261.687 L 70.312 261.281 L 70.469 260.845 L 96.749 193.095 L 99.812 185.22 L 107.968 187.47 L 162.842 202.656 L 168.498 204.219 L 169.561 209.969 L 183.467 284.969 C 186.928 302.581 326.009 297.614 329.401 285.001 L 343.307 209.971 L 344.37 204.221 L 350.026 202.657 L 404.902 187.47 L 413.058 185.22 L 416.121 193.094 L 442.401 260.844 L 442.559 261.281 L 442.684 261.689 C 445.066 270.126 449.546 274.835 455.09 277.626 C 460.633 280.416 467.515 281.006 473.81 279.439 C 480.102 277.872 485.597 274.241 488.87 269.251 C 492.133 264.281 493.667 257.871 491.246 248.595 L 491.216 248.501 L 448.183 127.626 L 332.433 157.096 C 328.639 171.604 322.363 184.72 314.09 195.596 C 299.993 214.126 279.68 226.346 256.965 226.346 C 234.25 226.346 213.967 214.126 199.87 195.596 C 191.657 184.799 185.423 171.791 181.62 157.406 L 64.682 127.626 L 64.687 127.625 Z M 183.009 281.65 L 195.969 352.406 L 195.969 364.186 L 196.279 364.188 C 196.182 364.601 196.124 365.018 196.124 365.438 C 196.124 375.198 223.099 383.094 256.374 383.094 C 289.649 383.094 316.624 375.197 316.624 365.438 C 316.624 365.016 316.534 364.602 316.436 364.188 L 316.749 364.188 L 316.749 353.25 L 330.94 276.033 C 337.803 277.709 181.66 272.775 183.009 281.65 Z" fill="#000000" fill-opacity="1" transform="translate(51.2, 51.2) scale(0.8, 0.8) rotate(0, 256, 256) skewX(0) skewY(0)"/>
  </g>
</svg>