<?xml version="1.0" encoding="utf-8"?>
<svg style="height: 512px; width: 512px;" viewBox="0 0 512 512" xmlns="http://www.w3.org/2000/svg" width="512" height="512">
  <polygon points="477.7,384,256,512,34.3,384,34.3,128,256,0,477.7,128" fill="#ffffff" fill-opacity="1"/>
  <g class="" style="" transform="translate(0,0)">
    <path d="M 9.484 56.285 L 20 227.947 L 29.924 258.587 C 64.43 236.324 95.599 223.947 131.357 228.154 L 87.069 10.255 L 9.484 56.285 Z M 417.039 5.737 L 380.643 228.154 C 416.401 223.948 447.57 236.324 482.076 258.588 L 492 227.948 L 496.917 52.699 L 417.039 5.737 Z M 193.145 245.31 C 198.506 250.503 199.662 260.464 200.265 266.965 L 221.525 277.996 C 223.413 283.18 218.115 293.256 213.235 293.973 L 200.24 287.23 C 199.267 293.875 198.453 299.777 195.457 305.027 L 204.943 309.951 C 211.489 313.348 219.237 311.988 224.428 308.754 C 227.556 306.805 230.138 304.324 232.291 301.531 C 239.668 302.923 247.793 303.5 256 303.5 C 264.207 303.5 272.332 302.923 279.709 301.531 C 281.863 304.324 284.444 306.805 287.572 308.754 C 292.763 311.988 300.511 313.348 307.057 309.951 L 316.543 305.027 C 313.547 299.777 312.733 293.875 311.76 287.23 L 298.766 293.973 C 293.886 293.256 288.587 283.18 290.475 277.996 L 311.735 266.965 C 312.338 260.465 313.494 250.503 318.855 245.311 C 316.192 245.403 313.373 246.223 310.585 247.281 L 282.184 262.02 C 275.638 265.417 272.289 272.534 271.945 278.64 C 271.835 280.607 271.955 282.53 272.232 284.414 C 267.222 285.099 261.589 285.5 256 285.5 C 250.411 285.5 244.778 285.1 239.768 284.414 C 240.044 282.531 240.165 280.607 240.055 278.641 C 239.711 272.534 236.362 265.416 229.816 262.02 L 201.414 247.281 C 198.627 246.223 195.808 245.403 193.144 245.311 L 193.145 245.31 Z M 118.713 245.89 C 80.989 246.416 44.167 266.831 22.355 290.787 L 29.604 310.597 C 61.284 271.905 106.864 259.811 149.984 270.779 C 149.567 263.689 149.754 257.085 150.303 250.486 C 139.908 247.156 129.275 245.744 118.713 245.891 L 118.713 245.89 Z M 393.287 245.89 C 382.725 245.744 372.092 247.156 361.697 250.486 C 362.247 257.086 362.433 263.69 362.016 270.779 C 405.136 259.811 450.716 271.905 482.396 310.598 L 489.645 290.788 C 467.833 266.831 431.011 246.416 393.287 245.891 L 393.287 245.89 Z M 168.096 246.182 C 167.286 257.067 167.83 275.592 170.93 289.789 L 180.664 293.754 C 183.25 282.531 183.57 261.084 180.729 250.784 C 176.997 248.442 172.803 247.045 168.096 246.182 Z M 343.904 246.182 C 339.197 247.045 335.004 248.442 331.271 250.783 C 328.431 261.083 328.749 282.531 331.336 293.753 L 341.07 289.789 C 344.17 275.593 344.715 257.067 343.904 246.182 Z M 119.684 284.642 C 92.408 284.986 65.725 297.596 48.508 315.965 C 50.212 321.229 51.918 326.492 53.621 331.755 C 47.336 369.495 45.331 408.918 50.783 440.334 C 51.838 448.556 55.612 455.473 62.299 455.232 C 72.88 454.852 82.93 447.173 92.629 446.532 C 101.064 446.082 107.102 449.478 113.771 451.619 C 120.441 453.76 126.822 455.055 131.981 453.979 C 142.97 449.117 147.228 433.155 157.486 429.188 C 167.945 423.814 180.959 431.738 191.053 428.528 C 197.845 426.434 201.546 422.684 201.986 416.988 C 197.903 392.701 187.165 369.999 173.674 348.128 C 182.274 347.571 192.496 353.212 200.748 359.168 C 204.861 367.139 208.567 375.328 211.672 383.781 C 216.962 377.903 225.86 369.641 222.182 361.977 C 216.818 351.804 212.105 342.968 205.9 333.657 C 203.394 329.894 164.332 302.644 144.484 302.582 L 141.77 287.186 C 135.35 285.573 128.828 284.756 122.324 284.648 C 121.444 284.634 120.564 284.632 119.684 284.642 Z M 392.316 284.642 C 391.436 284.632 390.556 284.634 389.676 284.649 C 383.172 284.757 376.65 285.574 370.23 287.186 L 367.516 302.582 C 347.668 302.644 308.606 329.895 306.1 333.656 C 299.895 342.968 295.182 351.804 289.818 361.976 C 286.14 369.642 295.038 377.903 300.328 383.781 C 303.433 375.327 307.138 367.139 311.252 359.168 C 319.504 353.212 329.726 347.571 338.326 348.129 C 324.836 369.999 314.097 392.701 310.014 416.989 C 310.454 422.684 314.154 426.434 320.947 428.527 C 331.041 431.737 344.055 423.814 354.514 429.187 C 364.772 433.155 369.03 449.117 380.02 453.979 C 385.178 455.055 391.559 453.76 398.229 451.619 C 404.899 449.479 410.936 446.082 419.371 446.531 C 429.07 447.173 439.121 454.852 449.701 455.233 C 456.388 455.473 460.161 448.557 461.217 440.334 C 466.669 408.919 464.664 369.495 458.379 331.756 C 460.082 326.492 461.789 321.229 463.492 315.965 C 446.275 297.596 419.592 284.986 392.316 284.643 L 392.316 284.642 Z" fill="#000000" fill-opacity="1" transform="translate(76.8, 76.8) scale(0.7, 0.7) rotate(0, 256, 256) skewX(0) skewY(0)"/>
  </g>
</svg>