<?xml version="1.0" encoding="utf-8"?>
<svg style="height: 512px; width: 512px;" viewBox="0 0 512 512" xmlns="http://www.w3.org/2000/svg" width="512" height="512">
  <polygon points="477.7,384,256,512,34.3,384,34.3,128,256,0,477.7,128" fill="#ffffff" fill-opacity="1"/>
  <g class="" style="" transform="matrix(1.218034, 0, 0, 1.218034, -57.472588, -106.148384)">
    <path d="M 160.01 183 C 152.01 183 146.18 187.038 139.844 191.813 C 133.508 196.587 126.864 202.757 119.803 209.483 C 106.051 222.579 90.7 237.773 76.195 247.701 L 121.602 248.836 C 132.772 227.888 139.879 208.45 160.01 201 L 231.01 201 L 231.01 251.572 L 249.01 252.022 L 249.01 201 L 272.01 201 C 283.51 201 302.958 211.484 322.387 227.027 C 332.87 235.414 343.451 245.037 353.504 254.635 L 403.115 255.875 L 452.844 197.857 L 439.176 186.143 L 379.939 255.252 C 365.987 241.427 349.987 226.056 333.633 212.972 C 313.06 196.517 292.51 183 272.01 183 L 160.01 183 Z M 47.986 265.004 C 42.991 265.012 36.952 267.784 32.373 272.364 C 27.787 276.948 25.01 283 25.01 288 C 25.01 301 32.286 320.26 41.643 335.23 C 45.998 342.2 50.766 348.286 55.023 352.543 C 55.022 352.361 55.01 352.183 55.01 352 C 55.01 320.626 80.636 295 112.01 295 C 143.383 295 169.01 320.626 169.01 352 C 169.01 354.37 168.847 356.704 168.563 359 L 359.457 359 C 359.164 356.678 359.015 354.34 359.01 352 C 359.01 320.626 384.636 295 416.01 295 C 447.383 295 473.01 320.626 473.01 352 C 473.01 354.37 472.847 356.704 472.563 359 L 481.955 359 L 486.99 313.674 C 486.884 300.851 480.714 291.689 472.387 285.027 C 463.987 278.307 453.01 275 448.01 275 L 447.896 275 L 47.986 265.004 L 47.986 265.004 Z M 112.01 313 C 90.364 313 73.01 330.354 73.01 352 C 73.01 373.646 90.364 391 112.01 391 C 133.655 391 151.01 373.646 151.01 352 C 151.01 330.354 133.655 313 112.01 313 L 112.01 313 Z M 416.01 313 C 394.364 313 377.01 330.354 377.01 352 C 377.01 373.646 394.364 391 416.01 391 C 437.655 391 455.01 373.646 455.01 352 C 455.01 330.354 437.655 313 416.01 313 Z M 201.01 377 L 201.01 391 L 311.01 391 L 311.01 377 L 201.01 377 Z M 249.01 409 L 249.01 455 L 263.01 455 L 263.01 409 L 249.01 409 Z M 213.572 473 L 206.572 487 L 305.447 487 L 298.447 473 L 213.572 473 Z" fill="#000000" fill-opacity="1" transform="translate(76.8, 76.8) scale(0.7, 0.7) rotate(0, 256, 256) skewX(0) skewY(0)"/>
  </g>
</svg>