<?xml version="1.0" encoding="utf-8"?>
<svg style="height: 512px; width: 512px;" viewBox="0 0 512 512" xmlns="http://www.w3.org/2000/svg" width="512" height="512">
  <polygon points="477.7,384,256,512,34.3,384,34.3,128,256,0,477.7,128" fill="#ffffff" fill-opacity="1"/>
  <g class="" style="" transform="matrix(1, 0, 0, 1, 0, -26.801165)">
    <path d="M 257.125 94.906 C 207.597 94.859 146.651 124.138 128.719 199.844 L 189.469 214.156 C 216.434 137.914 280.339 143.332 302.779 185.531 C 329.554 235.877 213.092 292.814 218.655 375.938 L 296.343 375.938 C 302.833 277.794 415.316 252.448 355.905 146.408 C 337.963 114.38 301 96.572 261.876 95.03 L 261.876 95 C 260.303 94.938 258.723 94.908 257.126 94.906 L 257.125 94.906 Z M 258.5 395.97 C 231.55 395.97 209.906 417.614 209.906 444.562 C 209.906 471.512 231.551 493.156 258.5 493.156 C 285.45 493.156 307.094 471.511 307.094 444.562 C 307.094 417.614 285.449 395.969 258.5 395.969 L 258.5 395.97 Z" fill="#000000" fill-opacity="1" transform="translate(51.2, 51.2) scale(0.8, 0.8) rotate(0, 256, 256) skewX(0) skewY(0)"/>
  </g>
</svg>