<?xml version="1.0" encoding="utf-8"?>
<svg style="height: 512px; width: 512px;" viewBox="0 0 512 512" width="512" height="512" xmlns="http://www.w3.org/2000/svg">
  <defs>
    <linearGradient x1="0" x2="0" y1="0" y2="1" id="lorc-dna2-gradient-0">
      <stop offset="0" stop-color="#b9b9b9" stop-opacity="1"/>
      <stop offset="1" stop-color="#666666" stop-opacity="1"/>
    </linearGradient>
  </defs>
  <rect fill="url(#lorc-dna2-gradient-0)" height="512" width="512" rx="64" ry="64"/>
  <g class="" style="" transform="translate(0,0)">
    <path d="M 415.03 17.563 C 410.14 21.173 405.607 25.356 401.53 30.219 C 388.434 45.843 380.702 67.732 380.094 96.999 C 359.697 85.043 337.271 80.161 315.531 80.969 C 292.721 81.814 270.655 88.915 252.531 100.624 C 231.821 114.006 215.868 133.624 210.031 157.249 C 205.309 176.369 207.547 197.819 218.471 219.437 C 212.668 219.062 207.031 218.87 201.564 218.874 C 199.922 218.874 198.299 218.901 196.689 218.937 C 158.039 219.785 128.205 230.371 109.251 250.843 C 86.775 275.118 82.141 311.563 94.971 355.249 C 69.031 348.956 42.859 349.789 19.064 360.655 L 19.064 401.561 C 24.914 396.621 32.104 392.348 40.626 388.874 L 40.656 388.874 L 121.876 443.968 C 121.896 444.728 121.908 445.498 121.906 446.248 C 121.892 459.77 118.954 471.083 113.126 480.623 L 19.063 415.593 L 19.063 438.31 L 97.97 492.842 L 127.344 492.842 C 136.051 479.629 140.574 463.77 140.594 446.279 C 140.614 427.912 135.957 407.706 126.781 385.843 C 178.444 402.023 224.546 389.191 250.563 359.499 C 275.781 330.719 280.708 286.757 256.22 243.624 C 291.09 249.12 320.83 247.734 344.5 239.28 L 344.72 239.594 L 345.812 238.814 C 354.339 235.644 362.07 231.554 368.937 226.5 C 394.445 207.73 405.797 176.333 402.031 136.875 C 430.416 155.581 463.288 158.781 494.345 155.688 L 494.345 81.25 L 471.095 17.562 L 415.03 17.562 L 415.03 17.563 Z M 452.22 20.438 L 488.75 120.375 C 480.165 121.165 470.806 121.135 460.75 120.312 L 426.812 32.094 C 434.145 26.82 442.718 23.049 452.219 20.437 L 452.22 20.438 Z M 412.436 46.75 L 439.656 117.53 C 426.964 115.285 413.396 111.95 398.999 107.375 C 397.937 79.177 403.343 59.997 412.437 46.75 L 412.436 46.75 Z M 336.811 116.438 C 350.211 117.092 364.986 119.118 380.905 122.531 C 385.27 144.345 385.153 162.499 381.061 177.281 L 336.811 116.438 Z M 313.905 116.718 L 372.125 196.75 C 368.245 202.413 363.491 207.305 357.875 211.438 C 355.677 213.054 353.32 214.544 350.812 215.938 L 284.187 122.625 C 292.849 119.615 302.777 117.609 313.905 116.719 L 313.905 116.718 Z M 267.093 130.844 L 333 223.188 C 323.97 225.768 313.693 227.322 302.25 227.781 L 247.094 152 C 251.396 144.43 257.118 138.085 264.156 132.906 C 265.106 132.206 266.086 131.503 267.094 130.844 L 267.093 130.844 Z M 239.405 173.25 L 278.718 227.28 C 267.883 226.432 256.246 224.75 243.842 222.187 L 243.779 222.031 L 242.249 221.845 C 241.935 221.778 241.626 221.725 241.311 221.657 C 241.108 221.352 240.917 221.057 240.718 220.751 C 237.163 202.364 236.818 186.578 239.404 173.251 L 239.405 173.25 Z M 201.155 237.656 C 210.145 237.64 219.865 238.244 230.093 239.344 C 235.663 255.139 238.785 269.324 239.687 281.969 L 193.062 237.843 C 194.476 237.78 195.894 237.72 197.342 237.687 C 198.596 237.657 199.872 237.657 201.155 237.655 L 201.155 237.656 Z M 168.843 240.626 L 238.343 306.406 C 236.013 317.873 231.203 327.492 224.187 335.281 L 137.655 251.876 C 146.205 246.853 156.61 243.039 168.843 240.626 Z M 122.905 263.594 L 209.53 347.124 C 201.605 351.834 192.045 355.497 180.875 357.937 L 109.845 290.687 L 108.375 292.25 C 110.85 280.876 115.777 271.317 122.905 263.594 L 122.905 263.594 Z M 106.593 313.374 L 157.03 361.124 C 144.784 361.86 131.164 361.476 116.22 359.844 C 110.123 342.441 107.02 326.967 106.594 313.374 L 106.593 313.374 Z M 102.813 378.5 C 110.06 393.034 115.153 406.558 118.249 418.938 L 63.874 382.094 C 75.336 379.821 88.324 378.564 102.812 378.5 L 102.813 378.5 Z" fill="#ffffff" fill-opacity="1"/>
  </g>
</svg>