<?xml version="1.0" encoding="utf-8"?>
<svg style="height: 512px; width: 512px;" viewBox="0 0 512 512" xmlns="http://www.w3.org/2000/svg" width="512" height="512">
  <defs>
    <linearGradient x1="0" x2="0" y1="0" y2="1" id="lorc-spanner-gradient-0">
      <stop offset="0" stop-color="#b9b9b9" stop-opacity="1"/>
      <stop offset="1" stop-color="#666666" stop-opacity="1"/>
    </linearGradient>
  </defs>
  <rect fill="url(#lorc-spanner-gradient-0)" height="512" width="512" rx="64" ry="64"/>
  <g class="" style="" transform="matrix(0.980343, 0, 0, 0.980343, 3.706252, 6.291777)">
    <path d="M 331.188 16.72 C 290.476 16.718 249.778 32.128 218.75 63.156 C 174.884 107.02 161.952 170.156 179.937 225.406 L 17.03 388.312 L 17.03 414.062 L 187.25 243.844 C 190 249.684 193.097 255.399 196.594 260.938 L 17.03 440.5 C 17.03 440.5 9.99 463.27 26.304 480.135 C 41.645 495.995 64 492.28 64 492.28 L 245.875 310.406 C 251.391 313.921 257.087 317.074 262.905 319.844 L 90.44 492.28 L 117.47 492.28 L 282.22 327.53 C 337.402 345.38 400.43 332.414 444.22 288.625 C 485.635 247.211 499.218 188.715 485.502 135.812 L 380.22 241.125 L 290.187 217.187 L 266.219 127.157 L 371.53 21.843 C 358.317 18.433 344.758 16.718 331.188 16.718 L 331.188 16.72 Z" fill="#fff" fill-opacity="1"/>
  </g>
</svg>