<?xml version="1.0" encoding="utf-8"?>
<svg version="1.1" width="3813.69px" height="1077.55px" preserveAspectRatio="none" viewBox="0 0 3813.69 1077.55" xmlns="http://www.w3.org/2000/svg">
  <defs>
    <clipPath id="clippath0" transform="">
      <path d="M 0 1077.55 L 3813.694 1077.55 L 3813.694 0 L 0 0 Z" style="fill: none; clip-rule: nonzero;"/>
    </clipPath>
    <clipPath id="clippath1" transform="">
      <path d="M 0 1077.55 L 3813.694 1077.55 L 3813.694 0 L 0 0 Z" style="fill: none; clip-rule: nonzero;"/>
    </clipPath>
  </defs>
  <g transform="matrix(1 0 0 -1 0 1077.55)">
    <g transform="">
      <path d="M 0 1077.55 L 3813.694 1077.55 L 3813.694 0 L 0 0 Z" style="fill: none;"/>
    </g>
    <g style="clip-path: url(#clippath0);">
      <g transform="translate(1337.0845 242.8268)">
        <path d="M 0 0 C -2.618 4.384 -6.196 7.755 -10.733 10.105 C -15.274 12.456 -20.623 13.63 -26.776 13.63 C -38.166 13.63 -47.128 9.87 -53.667 2.35 C -60.21 -5.171 -63.477 -15.276 -63.477 -27.966 C -63.477 -42.225 -59.979 -53.076 -52.975 -60.515 C -45.974 -67.958 -35.778 -71.678 -22.39 -71.678 C -6.542 -71.678 4.769 -64.393 11.542 -49.822 L -33.932 -49.822 L -33.932 -16.686 L 50.552 -16.686 L 50.552 -61.337 C 47.01 -70.114 41.817 -78.339 34.971 -86.014 C 28.122 -93.692 19.465 -99.997 9.003 -104.932 C -1.464 -109.867 -13.388 -112.335 -26.776 -112.335 C -43.089 -112.335 -57.516 -108.773 -70.056 -101.642 C -82.6 -94.514 -92.295 -84.567 -99.141 -71.796 C -105.99 -59.028 -109.413 -44.417 -109.413 -27.966 C -109.413 -11.674 -105.99 2.857 -99.141 15.628 C -92.295 28.395 -82.636 38.343 -70.172 45.474 C -57.707 52.602 -43.32 56.167 -27.007 56.167 C -6.542 56.167 10.388 51.151 23.776 41.127 C 37.163 31.098 45.473 17.391 48.705 0 Z" style="fill: rgb(33, 38, 41); fill-opacity: 1;"/>
      </g>
    </g>
    <g style="clip-path: url(#clippath0);">
      <g transform="translate(1565.9988 193.9448)">
        <path d="M 0 0 L -17.543 53.582 L -34.855 0 Z M 11.311 -35.251 L -46.396 -35.251 L -55.168 -62.278 L -102.718 -62.278 L -43.396 103.404 L 8.772 103.404 L 67.864 -62.278 L 20.082 -62.278 Z" style="fill: rgb(33, 38, 41); fill-opacity: 1;"/>
      </g>
    </g>
    <g style="clip-path: url(#clippath0);">
      <g transform="translate(1899.4784 297.3486)">
        <path d="M 0 0 L 0 -165.681 L -45.242 -165.681 L -45.242 -74.263 L -75.943 -165.681 L -113.798 -165.681 L -144.729 -73.558 L -144.729 -165.681 L -189.972 -165.681 L -189.972 0 L -135.266 0 L -94.409 -107.634 L -54.475 0 Z" style="fill: rgb(33, 38, 41); fill-opacity: 1;"/>
      </g>
    </g>
    <g style="clip-path: url(#clippath0);">
      <g transform="translate(2020.365 260.4521)">
        <path d="M 0 0 L 0 -27.026 L 51.937 -27.026 L 51.937 -62.042 L 0 -62.042 L 0 -91.888 L 58.861 -91.888 L 58.861 -128.785 L -45.242 -128.785 L -45.242 36.896 L 58.861 36.896 L 58.861 0 Z" style="fill: rgb(33, 38, 41); fill-opacity: 1;"/>
      </g>
    </g>
    <g style="clip-path: url(#clippath0);">
      <g transform="translate(2174.4905 143.7703)">
        <path d="M 0 0 C -12.158 9.165 -18.698 22.285 -19.621 39.364 L 28.623 39.364 C 29.084 33.566 30.776 29.336 33.701 26.673 C 36.622 24.008 40.395 22.678 45.011 22.678 C 49.166 22.678 52.589 23.736 55.284 25.851 C 57.974 27.966 59.323 30.903 59.323 34.664 C 59.323 39.519 57.091 43.278 52.629 45.944 C 48.164 48.607 40.933 51.584 30.931 54.874 C 20.313 58.477 11.733 61.961 5.194 65.332 C -1.349 68.7 -7.041 73.635 -11.888 80.138 C -16.735 86.638 -19.159 95.138 -19.159 105.637 C -19.159 116.289 -16.544 125.414 -11.311 133.015 C -6.081 140.613 1.154 146.371 10.387 150.288 C 19.621 154.203 30.083 156.164 41.78 156.164 C 60.708 156.164 75.827 151.658 87.138 142.651 C 98.448 133.639 104.486 120.989 105.258 104.696 L 56.091 104.696 C 55.936 109.709 54.436 113.469 51.59 115.977 C 48.741 118.481 45.087 119.737 40.626 119.737 C 37.239 119.737 34.469 118.716 32.316 116.682 C 30.159 114.644 29.084 111.747 29.084 107.987 C 29.084 104.851 30.274 102.148 32.663 99.879 C 35.046 97.606 38.007 95.649 41.549 94.004 C 45.087 92.359 50.321 90.28 57.245 87.776 C 67.553 84.17 76.058 80.608 82.752 77.083 C 89.446 73.558 95.217 68.622 100.064 62.278 C 104.912 55.932 107.335 47.901 107.335 38.189 C 107.335 28.318 104.912 19.465 100.064 11.633 C 95.217 3.797 88.212 -2.39 79.059 -6.933 C 69.902 -11.479 59.092 -13.748 46.627 -13.748 C 27.7 -13.748 12.154 -9.165 0 0" style="fill: rgb(33, 38, 41); fill-opacity: 1;"/>
      </g>
    </g>
    <g style="clip-path: url(#clippath0);">
      <g transform="translate(2521.2988 610.5632)">
        <path d="M 0 0 C 12.508 0 25.344 -1.664 37.381 0.714 C 43.245 1.873 51.493 10.257 51.962 15.926 C 53.578 35.428 52.889 55.209 51.858 74.82 C 50.598 98.809 39.852 111.258 16.27 114.527 C -24.7 120.207 -54.171 108.657 -51.404 59.41 C -51.238 56.441 -51.425 53.454 -51.375 50.477 C -50.424 -6.134 -61.762 0.141 0 0 M -127.333 -12.862 C -127.333 16.336 -128.365 45.58 -127.073 74.721 C -125.454 111.204 -117.832 146.951 -87.603 170.778 C -72.358 182.795 -52.729 192.545 -33.768 195.904 C 14.402 204.438 61.908 202.679 98.325 162.454 C 120.633 137.813 128.65 107.145 129.574 75.09 C 130.949 27.454 130.026 -20.244 130.606 -67.909 C 130.782 -82.393 122.449 -84.399 111.016 -84.365 C 65.132 -84.226 19.247 -84.308 -26.637 -84.291 C -51.246 -84.281 -57.561 -93.287 -48.573 -116.216 C -42.586 -131.486 -31.209 -140.71 -14.755 -141.28 C 16.773 -142.371 48.335 -142.847 79.884 -142.895 C 102.163 -142.929 104.463 -145.103 103.616 -167.072 C 103.089 -180.741 102.994 -194.525 104.16 -208.133 C 105.293 -221.342 100.07 -227.307 87.259 -227.197 C 51.514 -226.892 15.648 -228.231 -19.947 -225.741 C -78.047 -221.676 -113.932 -188.22 -123.677 -130.57 C -126.93 -111.326 -126.895 -91.46 -127.5 -71.852 C -128.105 -52.206 -127.633 -32.527 -127.633 -12.862 C -127.533 -12.862 -127.433 -12.862 -127.333 -12.862" style="fill: rgb(33, 38, 41); fill-opacity: 1;"/>
      </g>
    </g>
    <g style="clip-path: url(#clippath0);">
      <g transform="translate(3662.1101 669.9044)">
        <path d="M 0 0 C -5.366 -0.002 -10.764 0.378 -16.092 -0.072 C -32.627 -1.469 -39.64 5.083 -39.846 22.462 C -40.155 48.422 -47.657 55.177 -73.247 56.191 C -85.723 56.686 -98.376 56.903 -110.728 55.413 C -130.616 53.013 -140 42.142 -141.429 22.232 C -141.77 17.484 -141.797 12.695 -141.661 7.934 C -140.936 -17.361 -131.875 -27.414 -106.343 -30.12 C -86.813 -32.19 -67.033 -32.358 -47.651 -35.277 C -5.072 -41.69 21.472 -66.312 33.687 -107.899 C 47.041 -153.363 44.65 -196.632 21.284 -238.405 C 10.184 -258.25 -6.567 -271.71 -27.535 -277.989 C -68.361 -290.216 -110.366 -290.999 -150.925 -278.241 C -191.617 -265.44 -210.809 -233.43 -216.079 -192.356 C -223.45 -134.897 -216.408 -146.919 -175.358 -146.117 C -169.994 -146.012 -164.604 -146.384 -159.265 -146.006 C -146.373 -145.091 -141.137 -150.93 -140.618 -163.775 C -139.375 -194.539 -134.171 -199.5 -103.626 -201.6 C -95.902 -202.13 -88.062 -203.107 -80.428 -202.342 C -66.526 -200.948 -50.343 -202.662 -43.411 -186.297 C -35.096 -166.664 -34.153 -145.693 -46.283 -128.042 C -51.238 -120.832 -64.412 -117.532 -74.407 -115.918 C -90.793 -113.271 -107.691 -113.999 -124.276 -112.338 C -170.221 -107.735 -200.953 -83.268 -212.28 -38.527 C -221.909 -0.494 -221.824 37.974 -208.333 75.886 C -197.617 105.995 -176.748 124.666 -146.836 132.914 C -107.508 143.757 -67.944 143.454 -28.605 131.75 C -0.085 123.264 18.802 103.767 28.908 77.125 C 35.503 59.74 37.417 40.53 40.943 22.046 C 44.177 5.1 35.083 -0.585 19.674 -0.037 C 13.124 0.196 6.558 0.002 0 0" style="fill: rgb(33, 38, 41); fill-opacity: 1;"/>
      </g>
    </g>
    <g style="clip-path: url(#clippath0);">
      <g transform="translate(2101.6543 601.4379)">
        <path d="M 0 0 C -0.016 29.209 -1.992 58.594 0.582 87.575 C 2.818 112.745 7.771 138.296 16 162.133 C 24.088 185.563 44.642 199.392 67.234 209.258 C 118.066 231.454 189.065 217.987 220.058 178.445 C 245.866 145.52 247.978 105.872 246.477 66.127 C 246.33 62.228 239.769 57.417 235.145 55.195 C 231.221 53.309 225.779 54.256 221.031 54.468 C 206.859 55.1 189.225 51.271 179.665 58.312 C 172.433 63.639 175.326 82.951 174.048 96.071 C 171.384 123.404 157.008 136.177 127.472 137.128 C 93.439 138.224 77.315 128.395 74.414 100.459 C 71.777 75.077 72.686 49.299 72.527 23.693 C 72.3 -12.668 71.77 -49.052 72.752 -85.388 C 73.946 -129.583 103.802 -149.65 145.62 -134.566 C 153.458 -131.739 162.196 -125.671 165.929 -118.657 C 170.605 -109.872 173.276 -97.96 171.214 -88.637 C 170.358 -84.769 155.066 -82.59 146.246 -82.28 C 123.272 -81.472 121.949 -80.402 122.728 -57.763 C 123.198 -44.079 122.721 -30.351 122.337 -16.652 C 122.037 -5.938 125.83 0.561 137.563 0.523 C 169.156 0.422 200.749 0.501 232.341 0.375 C 242.596 0.334 247.221 -4.969 247.226 -15.363 C 247.253 -77.941 247.825 -140.522 247.093 -203.089 C 247.035 -208.065 238.942 -216.533 233.796 -217.188 C 218.54 -219.128 202.744 -219.167 187.478 -217.322 C 182.647 -216.738 178.118 -208.3 174.763 -202.673 C 172.314 -198.566 172.015 -193.176 170.757 -188.357 C 165.728 -190.811 159.838 -192.293 155.802 -195.868 C 112.287 -234.413 41.966 -223.306 18.107 -170.62 C 6.91 -145.892 3.344 -116.859 0.665 -89.354 C -2.211 -59.828 0.015 -29.806 0 0" style="fill: rgb(33, 38, 41); fill-opacity: 1;"/>
      </g>
    </g>
    <g style="clip-path: url(#clippath0);">
      <g transform="translate(3391.949 596.7651)">
        <path d="M 0 0 C -0.01 -64.985 -0.244 -129.971 0.188 -194.953 C 0.274 -207.803 -3.921 -213.894 -17.185 -213.512 C -32.078 -213.083 -46.994 -213.531 -61.897 -213.361 C -71.616 -213.251 -77.769 -209.735 -76.913 -198.294 C -76.517 -193.007 -78.413 -187.549 -79.27 -182.168 C -84.761 -184.824 -91.321 -186.338 -95.571 -190.318 C -126.937 -219.694 -185.82 -221.66 -216.914 -193.322 C -239.495 -172.741 -251.591 -146.173 -254.395 -116.284 C -256.895 -89.642 -257.052 -62.726 -257.176 -35.927 C -257.524 39.195 -257.305 114.319 -257.342 189.442 C -257.353 211.818 -255.761 213.409 -232.691 213.402 C -222.555 213.399 -212.356 212.69 -202.298 213.577 C -185.348 215.072 -180.788 207.117 -180.887 191.347 C -181.407 108.476 -181.176 25.6 -181.195 -57.273 C -181.197 -64.428 -181.286 -71.587 -181.052 -78.735 C -180.475 -96.381 -179.461 -115.06 -160.857 -123.224 C -138.653 -132.967 -113.446 -134.413 -94.147 -120.01 C -84.014 -112.447 -78.616 -93.307 -78.045 -79.115 C -76.106 -30.898 -77.245 17.442 -77.252 65.735 C -77.259 108.066 -76.832 150.406 -77.621 192.723 C -77.915 208.492 -71.855 214.418 -56.566 213.59 C -43.487 212.881 -30.331 213.11 -17.227 213.516 C -3.99 213.927 0.282 207.785 0.201 194.952 C -0.213 129.97 0.01 64.985 0 0" style="fill: rgb(33, 38, 41); fill-opacity: 1;"/>
      </g>
    </g>
    <g style="clip-path: url(#clippath0);">
      <g transform="translate(2695.3208 596.6561)">
        <path d="M 0 0 C -0.001 64.389 0.353 128.782 -0.253 193.165 C -0.402 208.986 5.567 214.748 20.88 213.695 C 32.747 212.879 44.731 213.171 56.636 213.656 C 69.756 214.191 77.527 210.597 75.28 195.316 C 74.686 191.275 77.338 186.757 78.5 182.458 C 83.082 184.268 88.654 184.971 92.098 188.053 C 145.85 236.152 226.113 215.027 246.558 145.596 C 253.672 121.436 256.172 95.225 256.519 69.892 C 257.718 -17.733 256.815 -105.385 257.304 -193.023 C 257.384 -207.388 253.052 -214.282 237.951 -213.439 C 225.47 -212.743 212.885 -212.713 200.407 -213.442 C 184.746 -214.356 179.5 -207.46 179.584 -192.202 C 180.058 -106.948 179.875 -21.69 179.919 63.566 C 179.921 67.143 179.897 70.721 179.958 74.298 C 180.729 119.488 161.947 133.632 115.317 128.704 C 90.914 126.124 79.596 113.701 77.016 89.137 C 75.899 78.504 76.093 67.707 76.112 56.985 C 76.259 -27.073 76.374 -111.131 76.868 -195.187 C 76.946 -208.311 71.393 -213.676 58.672 -213.365 C 45.564 -213.045 32.411 -212.734 19.333 -213.447 C 4.347 -214.264 -0.329 -207.6 -0.217 -193.165 C 0.285 -128.78 0.001 -64.389 0 0" style="fill: rgb(33, 38, 41); fill-opacity: 1;"/>
      </g>
    </g>
    <g style="clip-path: url(#clippath0);">
      <g transform="translate(3082.0742 594.6772)">
        <path d="M 0 0 C -0.009 -63.118 -0.346 -126.239 0.228 -189.351 C 0.373 -205.222 -4.48 -212.729 -21.289 -211.484 C -34.315 -210.519 -47.478 -211.124 -60.572 -211.409 C -72.661 -211.671 -77.642 -206.08 -77.625 -194.058 C -77.439 -63.669 -77.371 66.72 -77.574 197.109 C -77.594 209.821 -73.147 216.086 -59.957 215.672 C -46.869 215.262 -33.711 214.81 -20.673 215.692 C -4.894 216.76 0.304 209.886 0.2 194.711 C -0.249 129.81 0.009 64.904 0 0" style="fill: rgb(33, 38, 41); fill-opacity: 1;"/>
      </g>
    </g>
    <g style="clip-path: url(#clippath0);">
      <g transform="translate(3082.0869 880.4836)">
        <path d="M 0 0 C -0.405 -20.266 -19.209 -37.069 -40.504 -36.192 C -60.973 -35.349 -77.761 -18.16 -77.49 1.675 C -77.226 21.041 -57.153 40.311 -37.928 39.655 C -17.826 38.97 0.398 19.917 0 0" style="fill: rgb(33, 38, 41); fill-opacity: 1;"/>
      </g>
    </g>
    <g style="clip-path: url(#clippath0);">
      <g transform="translate(1360.0931 611.5005)">
        <path d="M 0 0 C 12.484 0 25.212 -1.432 37.344 0.635 C 42.977 1.595 51.622 9.255 51.743 14.059 C 52.341 37.746 51.769 61.643 48.918 85.14 C 47.926 93.31 40.895 103.438 33.687 107.653 C 12.963 119.774 -9.768 119.014 -31.52 109.551 C -51.019 101.068 -50.307 82.564 -50.975 65.223 C -51.158 60.473 -51.209 55.711 -51.12 50.957 C -50.075 -4.731 -61.721 -0.005 0 0 M -131.792 -19.436 C -131.792 10.571 -133.495 35.145 -131.298 59.365 C -129.231 82.143 -125.594 105.431 -118.135 126.928 C -103.575 168.884 -72.325 192.85 -27.961 197.775 C 14.967 202.541 56.874 200.995 91.318 169.458 C 116.749 146.174 125.95 115.171 127.333 82.64 C 129.481 32.098 128.605 -18.573 128.963 -69.189 C 129.068 -84.136 118.316 -84.208 107.823 -84.222 C 64.344 -84.279 20.864 -84.004 -22.611 -84.408 C -33.05 -84.504 -46.693 -79.527 -50.757 -95.582 C -54.729 -111.275 -46.429 -131.169 -32.033 -136.204 C -19.92 -140.441 -6.581 -142.516 6.3 -142.938 C 32.469 -143.797 58.719 -143.479 84.89 -142.468 C 98.203 -141.954 103.602 -147.234 103.527 -159.894 C 103.425 -177.164 103.552 -194.436 103.475 -211.707 C 103.43 -221.742 98.735 -227.331 88.207 -227.108 C 48.343 -226.263 8.317 -227.391 -31.343 -224.101 C -77.54 -220.269 -109.821 -186.127 -123.205 -141.301 C -135.869 -98.884 -129.183 -56.303 -131.792 -19.436" style="fill: rgb(255, 49, 43); fill-opacity: 1;"/>
      </g>
    </g>
    <g style="clip-path: url(#clippath0);">
      <g transform="translate(1519.1786 598.8927)">
        <path d="M 0 0 C 0 65.512 0.127 131.024 -0.129 196.534 C -0.17 207.064 3.978 212.165 14.419 212.199 C 30.502 212.251 46.586 212.442 62.667 212.306 C 73.905 212.211 77.956 206.177 77.893 195.07 C 77.32 93.216 77.258 -8.641 76.532 -110.493 C 76.433 -124.348 82.056 -130.757 95.207 -130.524 C 112.444 -130.219 129.817 -130.335 146.858 -128.148 C 166.509 -125.625 177.337 -113.46 179.689 -93.743 C 180.813 -84.319 180.701 -74.717 180.702 -65.195 C 180.714 20.587 180.839 106.37 180.359 192.15 C 180.278 206.499 184.788 213.279 199.827 212.494 C 213.491 211.781 227.224 212.211 240.922 212.424 C 252.942 212.61 258.322 206.773 258.234 194.97 C 257.498 96.104 258.235 -2.806 255.141 -101.597 C 254.377 -125.973 244.092 -151.379 233.03 -173.765 C 219.406 -201.335 193.457 -214.066 162.332 -214.214 C 114.081 -214.444 65.829 -214.351 17.579 -214.551 C 6.408 -214.597 -0.212 -211.618 -0.125 -198.33 C 0.307 -132.223 0.072 -66.112 0.072 -0.002 C 0.048 -0.001 0.024 -0.001 0 0" style="fill: rgb(255, 49, 43); fill-opacity: 1;"/>
      </g>
    </g>
    <g style="clip-path: url(#clippath0);">
      <g transform="translate(2035.0601 651.7574)">
        <path d="M 0 0 C 0 -82.26 -0.285 -164.523 0.248 -246.779 C 0.351 -262.604 -5.746 -268.372 -20.933 -267.523 C -33.412 -266.826 -45.992 -266.809 -58.471 -267.502 C -73.589 -268.341 -77.789 -261.445 -77.751 -247.077 C -77.332 -89.709 -77.495 67.66 -77.308 225.028 C -77.249 274.168 -85.345 269.658 -32.813 269.672 C -28.641 269.673 -24.434 269.375 -20.301 269.791 C -4.348 271.397 0.349 263.57 0.275 248.569 C -0.137 165.714 0.078 82.857 0.078 0 C 0.052 0 0.026 0 0 0" style="fill: rgb(255, 49, 43); fill-opacity: 1;"/>
      </g>
    </g>
    <g style="clip-path: url(#clippath0);">
      <g transform="translate(1828.8334 598.8205)">
        <path d="M 0 0 C -0.011 64.37 0.243 128.742 -0.216 193.109 C -0.313 206.76 4.209 213.116 18.293 212.52 C 31.382 211.966 44.542 211.858 57.619 212.547 C 74.301 213.426 77.288 204.323 77.219 190.13 C 76.839 111.455 76.999 32.778 76.992 -45.899 C 76.988 -94.773 76.574 -143.654 77.277 -192.519 C 77.509 -208.658 72.048 -215.78 55.518 -214.602 C 43.658 -213.757 31.662 -213.948 19.775 -214.586 C 5.405 -215.357 -0.392 -210.014 -0.25 -194.897 C 0.361 -129.936 0.011 -64.967 0 0" style="fill: rgb(255, 49, 43); fill-opacity: 1;"/>
      </g>
    </g>
    <g style="clip-path: url(#clippath0);">
      <g transform="translate(1905.876 882.6709)">
        <path d="M 0 0 C -0.287 -21.716 -17.621 -38.38 -39.1 -37.589 C -59.334 -36.844 -77.197 -19.076 -77.054 0.165 C -76.914 19.06 -55.964 39.206 -37.157 38.53 C -17.502 37.823 0.257 19.409 0 0" style="fill: rgb(255, 49, 43); fill-opacity: 1;"/>
      </g>
    </g>
    <g style="clip-path: url(#clippath0);">
      <g transform="translate(1006.5252 589.1545)">
        <path d="M 0 0 C -17.146 7.591 -17.543 -1.948 -17.546 -13.286 C -17.558 -47.333 -17.914 -81.385 -18.716 -115.424 C -18.948 -125.308 -21.129 -135.155 -22.764 -147.687 C 12.824 -139.904 38.873 -111.109 43.252 -79.996 C 47.526 -49.624 27.352 -12.108 0 0" style="fill: rgb(255, 255, 255); fill-opacity: 1;"/>
      </g>
    </g>
    <g style="clip-path: url(#clippath0);">
      <g transform="translate(807.1632 902.4687)">
        <path d="M 0 0 C -100.707 58.856 -207.701 60.908 -316.409 27.527 C -393.423 3.878 -446.415 -48.26 -479.365 -121.264 C -511.822 -193.176 -521.329 -269.485 -523.172 -366.806 C -523.144 -464.539 -492.66 -570.93 -414.121 -660.821 C -295.808 -796.235 -105.997 -804.578 20.282 -680.097 C 31.193 -669.341 87.255 -596.287 100.975 -568.567 C 103.378 -563.711 105.488 -558.7 107.549 -553.685 C 162.158 -420.793 158.355 -286.332 116.077 -151.687 C 95.987 -87.707 58.814 -34.373 0 0" style="fill: rgb(255, 255, 255); fill-opacity: 1;"/>
      </g>
    </g>
    <g style="clip-path: url(#clippath0);">
      <g transform="translate(404.1338 647.0067)">
        <path d="M 0 0 C 0 0 11.499 79.733 83.398 147.841 C 83.398 147.841 49.154 25.398 52.692 -19.586 Z" style="fill: rgb(255, 49, 43); fill-opacity: 1;"/>
      </g>
    </g>
    <g style="clip-path: url(#clippath0);">
      <g transform="translate(501.3984 573.8218)">
        <path d="M 0 0 C -3.185 2.123 -6.44 4.246 -9.908 6.44 C -10.828 7.006 -11.677 7.573 -12.598 8.139 C -13.588 8.846 -14.65 9.554 -15.853 10.191 C -35.386 22.222 -58.457 35.103 -81.245 47.204 C -136.023 76.292 -189.384 101.132 -189.384 101.132 C -152.654 96.815 -121.09 90.587 -94.975 84.005 C -74.805 78.981 -57.962 73.673 -44.586 69.002 C -19.816 60.297 -6.865 53.574 -6.865 53.574 C 19.604 61.146 42.816 107.148 42.816 107.148 C 48.124 33.404 0 0 0 0" style="fill: rgb(44, 46, 53); fill-opacity: 1;"/>
      </g>
    </g>
    <g style="clip-path: url(#clippath0);">
      <g transform="translate(903.7706 674.9323)">
        <path d="M 0 0 C 0 0 -125.902 -58.631 -189.383 -101.088 C -189.383 -101.088 -237.522 -67.729 -232.232 6.065 C -232.232 6.065 -208.956 -39.93 -182.506 -47.511 C -182.506 -47.511 -117.438 -13.647 0 0" style="fill: rgb(44, 46, 53); fill-opacity: 1;"/>
      </g>
    </g>
    <g style="clip-path: url(#clippath0);">
      <g transform="translate(494.675 557.1199)">
        <path d="M 0 0 C -1.769 -32.625 -28.804 -58.599 -61.854 -58.599 C -96.037 -58.599 -123.779 -30.856 -123.779 3.326 C -123.779 33.192 -102.618 58.103 -74.522 63.906 C -70.488 64.826 -66.242 65.251 -61.854 65.251 C -34.607 65.251 -11.465 47.629 -3.185 23.142 C -3.043 22.859 -2.972 22.505 -2.901 22.222 C -3.822 23.213 -4.812 24.062 -5.874 24.841 C -6.865 25.548 -7.926 26.256 -9.129 26.893 C -14.579 29.936 -21.585 31.705 -29.087 31.705 C -46.851 31.705 -61.288 21.727 -61.288 9.413 C -61.288 -2.902 -46.851 -12.88 -29.087 -12.88 C -16.206 -12.88 -5.025 -7.643 0 0" style="fill: rgb(44, 46, 53); fill-opacity: 1;"/>
      </g>
    </g>
    <g style="clip-path: url(#clippath0);">
      <g transform="translate(856.5286 560.446)">
        <path d="M 0 0 C 0 -21.585 -11.04 -40.623 -27.813 -51.663 L -27.884 -51.663 C -37.65 -58.174 -49.328 -61.925 -61.925 -61.925 C -70.417 -61.925 -78.486 -60.226 -85.846 -57.112 C -108.139 -47.771 -123.85 -25.69 -123.85 0 C -123.85 10.687 -121.16 20.736 -116.348 29.512 L -116.277 29.582 C -105.803 48.832 -85.421 61.925 -61.925 61.925 C -60.793 61.925 -59.589 61.925 -58.457 61.854 C -41.755 60.934 -26.822 53.362 -16.277 41.826 C -19.179 42.463 -22.222 42.746 -25.407 42.746 C -43.17 42.746 -57.537 32.767 -57.537 20.453 C -57.537 8.139 -43.17 -1.84 -25.407 -1.84 C -15.286 -1.84 -6.228 1.415 -0.354 6.44 C -0.142 4.317 0 2.194 0 0" style="fill: rgb(44, 46, 53); fill-opacity: 1;"/>
      </g>
    </g>
    <g style="clip-path: url(#clippath0);">
      <g transform="translate(379.1687 501.7505)">
        <path d="M 0 0 C 0 0 23.546 -18.944 56.429 -19.644 C 56.429 -19.644 46.528 -83.044 53.649 -149.037 C 53.649 -149.037 -5.181 -88.578 0 0" style="fill: rgb(255, 49, 43); fill-opacity: 1;"/>
      </g>
    </g>
    <g style="clip-path: url(#clippath0);">
      <g transform="translate(688.0928 458.5609)">
        <path d="M 0 0 C 0 -48.832 -40.682 -88.409 -90.806 -88.409 C -140.931 -88.409 -181.612 -48.832 -181.612 0 C -181.612 8.404 -180.425 16.524 -178.108 24.246 C -167.299 -12.776 -132.26 -39.861 -90.806 -39.861 C -49.352 -39.861 -14.313 -12.776 -3.504 24.246 C -1.188 16.524 0 8.404 0 0" style="fill: rgb(44, 46, 53); fill-opacity: 1;"/>
      </g>
    </g>
    <g style="clip-path: url(#clippath0);">
      <g transform="translate(857.7679 373.2931)">
        <path d="M 0 0 C -7.186 8.968 -17.639 16.451 -30.17 21.38 C -48.759 -65.685 -135.348 -131.547 -239.339 -131.547 C -310.249 -131.547 -373.143 -100.902 -411.746 -53.807 C -374.033 -84.214 -325.037 -102.565 -271.528 -102.565 C -179.593 -102.565 -101.081 -48.58 -70.02 27.557 C -82.492 26.666 -93.835 23.043 -102.862 17.282 C -97.28 35.574 -81.185 48.699 -61.943 51.728 C -56.539 52.619 -50.837 52.678 -45.077 51.847 C -38.484 50.837 -32.308 48.759 -26.785 45.73 C -9.977 36.525 0.772 19.005 0 0" style="fill: rgb(44, 46, 53); fill-opacity: 1;"/>
      </g>
    </g>
    <g style="clip-path: url(#clippath0);">
      <g transform="translate(889.9883 446.817)">
        <path d="M 0 0 C 0 -4.751 -0.654 -9.384 -1.961 -13.838 C -10.133 14.669 -42.601 35.99 -81.388 35.99 C -120.176 35.99 -152.644 14.669 -160.816 -13.838 C -162.123 -9.384 -162.777 -4.751 -162.777 0 C -162.777 35.277 -126.277 63.843 -81.388 63.843 C -36.5 63.843 0 35.277 0 0" style="fill: rgb(44, 46, 53); fill-opacity: 1;"/>
      </g>
    </g>
    <g style="clip-path: url(#clippath0);">
      <g transform="translate(237.5569 585.0418)">
        <path d="M 0 0 C -2.569 4.992 -4.315 13.653 -7.882 14.187 C -14.649 15.202 -23.603 12.958 -29.661 9.639 C -96.924 -27.213 -91.93 -102.455 -20.15 -134.251 C -14.636 -136.694 -4.805 -138.581 -1.185 -136.286 C 2.662 -133.847 2.739 -126.054 2.325 -120.709 C -0.763 -80.811 -2.612 -0.354 0 0" style="fill: rgb(255, 255, 255); fill-opacity: 1;"/>
      </g>
    </g>
    <g style="clip-path: url(#clippath0);">
      <g transform="translate(990.8196 456.7897)">
        <path d="M 0 0 C 28.043 6.888 48.57 32.37 52.021 59.903 C 55.389 86.78 39.491 119.98 17.938 130.695 C 4.427 137.412 4.115 128.971 4.112 118.937 C 4.103 88.807 3.822 58.674 3.19 28.551 C 3.007 19.804 1.289 11.09 0 0 M -763.115 122.098 C -765.006 126.59 -766.292 134.383 -768.917 134.864 C -773.9 135.777 -780.491 133.758 -784.951 130.772 C -834.471 97.611 -830.794 29.904 -777.949 1.293 C -773.89 -0.905 -766.652 -2.603 -763.987 -0.538 C -761.155 1.656 -761.098 8.669 -761.403 13.479 C -763.676 49.381 -765.037 121.78 -763.115 122.098 M -706.165 74.599 C -706.138 -20.373 -676.514 -123.758 -600.194 -211.11 C -485.223 -342.699 -300.774 -350.806 -178.063 -229.842 C -167.459 -219.389 -112.981 -148.399 -99.649 -121.462 C -97.314 -116.743 -95.264 -111.874 -93.261 -107 C -40.194 22.137 -43.889 152.801 -84.973 283.642 C -104.495 345.815 -140.618 397.642 -197.772 431.044 C -295.634 488.237 -399.606 490.232 -505.242 457.794 C -580.081 434.812 -631.576 384.148 -663.595 313.205 C -695.135 243.325 -704.373 169.171 -706.165 74.599 M -380.358 541.967 C -287.962 540.095 -203.987 516.933 -132.147 457.895 C -78.16 413.529 -44.039 355.613 -23.638 289.409 C -16.476 266.17 -12.43 241.91 -4.318 219.055 C -1.186 210.233 8.017 199.956 16.619 197.269 C 74.363 179.225 115.456 124.564 113.711 65.149 C 111.934 4.618 67.374 -50.312 8.439 -61.961 C -10.004 -65.607 -17.711 -75.455 -23.363 -91.975 C -63.098 -208.107 -134.584 -298.653 -247.875 -348.761 C -345.434 -391.91 -444.67 -387.139 -539.146 -335.491 C -638.037 -281.43 -700.793 -196.867 -737.083 -91.651 C -742.868 -74.877 -751.143 -66.252 -769.751 -63.287 C -832.573 -53.274 -878.732 1.024 -880.974 64.584 C -883.192 127.461 -839.841 183.778 -776.824 197.927 C -760.867 201.509 -755.486 210.785 -753.012 224.971 C -741.778 289.395 -718.809 348.953 -680.206 402.288 C -631.482 469.609 -564.792 509.171 -485.134 527.113 C -450.833 534.838 -415.32 537.18 -380.358 541.967" style="fill: rgb(44, 46, 53); fill-opacity: 1;"/>
      </g>
    </g>
    <g transform="">
      <path d="M 0 1077.55 L 3813.694 1077.55 L 3813.694 0 L 0 0 Z" style="fill: none;"/>
    </g>
    <g style="clip-path: url(#clippath1);">
      <g transform="translate(237.5569 585.0418)">
        <path d="M 0 0 C -2.569 4.992 -4.315 13.653 -7.882 14.187 C -14.649 15.202 -23.603 12.958 -29.661 9.639 C -96.924 -27.213 -91.93 -102.455 -20.15 -134.251 C -14.636 -136.694 -4.805 -138.581 -1.185 -136.286 C 2.662 -133.847 2.739 -126.054 2.325 -120.709 C -0.763 -80.811 -2.612 -0.354 0 0 M 569.606 317.427 C 468.899 376.283 361.905 378.335 253.198 344.954 C 176.184 321.305 123.191 269.167 90.241 196.163 C 57.784 124.251 48.278 47.942 46.435 -49.379 C 46.462 -147.112 76.947 -253.503 155.486 -343.394 C 273.798 -478.808 463.61 -487.151 589.888 -362.67 C 600.8 -351.914 656.861 -278.86 670.581 -251.14 C 672.984 -246.284 675.094 -241.273 677.155 -236.258 C 731.764 -103.366 727.962 31.095 685.684 165.74 C 665.594 229.72 628.421 283.054 569.606 317.427 M 812.22 -75.883 C 807.841 -106.996 781.792 -135.791 746.204 -143.574 C 747.84 -131.042 750.02 -121.195 750.252 -111.311 C 751.054 -77.272 751.411 -43.221 751.422 -9.173 C 751.425 2.165 751.822 11.703 768.968 4.113 C 796.32 -7.995 816.495 -45.511 812.22 -75.883" style="fill: rgb(255, 255, 255); fill-opacity: 1;"/>
      </g>
    </g>
    <g style="clip-path: url(#clippath1);">
      <g transform="translate(994.0098 485.3408)">
        <path d="M 0 0 C 0.631 30.123 0.912 60.256 0.921 90.386 C 0.924 100.42 1.236 108.861 14.748 102.144 C 36.301 91.429 52.198 58.229 48.83 31.352 C 45.38 3.819 24.853 -21.663 -3.19 -28.551 C -1.901 -17.461 -0.183 -8.747 0 0 M -764.593 -15.072 C -764.288 -19.882 -764.345 -26.895 -767.177 -29.089 C -769.842 -31.154 -777.08 -29.456 -781.139 -27.258 C -833.985 1.353 -837.661 69.06 -788.141 102.221 C -783.682 105.207 -777.09 107.226 -772.108 106.313 C -769.482 105.832 -768.196 98.039 -766.305 93.547 C -768.228 93.229 -766.867 20.83 -764.593 -15.072 M -666.786 284.654 C -634.766 355.596 -583.271 406.261 -508.432 429.242 C -402.796 461.681 -298.824 459.686 -200.962 402.493 C -143.809 369.091 -107.686 317.264 -88.163 255.091 C -47.08 124.249 -43.385 -6.414 -96.451 -135.552 C -98.454 -140.425 -100.504 -145.294 -102.84 -150.013 C -116.172 -176.95 -170.65 -247.94 -181.253 -258.393 C -303.964 -379.357 -488.414 -371.25 -603.384 -239.661 C -679.705 -152.309 -709.328 -48.924 -709.355 46.048 C -707.564 140.62 -698.326 214.774 -666.786 284.654 M -488.324 498.562 C -567.982 480.62 -634.672 441.058 -683.397 373.737 C -721.999 320.402 -744.969 260.844 -756.203 196.42 C -758.677 182.234 -764.057 172.958 -780.014 169.375 C -843.032 155.227 -886.382 98.91 -884.164 36.033 C -881.922 -27.527 -835.763 -81.826 -772.941 -91.838 C -754.333 -94.803 -746.058 -103.429 -740.273 -120.202 C -703.984 -225.418 -641.227 -309.981 -542.337 -364.042 C -447.86 -415.69 -348.625 -420.461 -251.065 -377.312 C -137.775 -327.204 -66.288 -236.658 -26.553 -120.526 C -20.901 -104.006 -13.194 -94.158 5.248 -90.512 C 64.184 -78.863 108.744 -23.933 110.521 36.598 C 112.266 96.013 71.173 150.674 13.428 168.718 C 4.827 171.405 -4.376 181.682 -7.508 190.504 C -15.621 213.359 -19.666 237.619 -26.828 260.858 C -47.23 327.062 -81.35 384.978 -135.337 429.344 C -207.177 488.381 -291.153 511.544 -383.548 513.416 C -418.511 508.629 -454.024 506.287 -488.324 498.562" style="fill: rgb(44, 46, 53); fill-opacity: 1;"/>
      </g>
    </g>
    <g style="clip-path: url(#clippath1);">
      <g transform="translate(432.8775 353.1688)">
        <path d="M 0 0 C -7.121 65.992 2.78 129.393 2.78 129.393 C -30.102 130.093 -53.649 149.037 -53.649 149.037 C -58.83 60.458 0 0 0 0 M -28.684 294.293 C -28.684 294.293 -17.185 374.026 54.714 442.134 C 54.714 442.134 20.47 319.691 24.008 274.707 Z" style="fill: rgb(255, 49, 43); fill-opacity: 1;"/>
      </g>
    </g>
    <g style="clip-path: url(#clippath1);">
      <g transform="translate(828.6053 509.1741)">
        <path d="M 0 0 C 0.033 0.022 0.067 0.042 0.099 0.064 L 0.17 0.064 C 16.943 11.104 27.983 30.141 27.983 51.727 C 27.983 53.921 27.842 56.044 27.629 58.167 C 21.755 53.142 12.697 49.887 2.576 49.887 C -15.187 49.887 -29.554 59.865 -29.554 72.18 C -29.554 84.494 -15.187 94.473 2.576 94.473 C 5.761 94.473 8.804 94.189 11.706 93.553 C 1.161 105.088 -13.772 112.661 -30.474 113.581 C -30.478 113.581 -30.482 113.581 -30.485 113.581 C 23.419 142.087 75.225 166.213 75.225 166.213 C -42.213 152.566 -107.281 118.702 -107.281 118.702 C -133.731 126.283 -157.007 172.278 -157.007 172.278 C -162.297 98.484 -114.157 65.125 -114.157 65.125 C -106.35 70.346 -97.596 75.813 -88.251 81.385 C -88.265 81.359 -88.28 81.334 -88.294 81.309 L -88.365 81.239 C -93.177 72.463 -95.866 62.413 -95.866 51.727 C -95.866 26.037 -80.156 3.956 -57.862 -5.386 C -57.849 -5.392 -57.834 -5.397 -57.821 -5.402 C -83.672 -16.093 -101.334 -37.369 -101.334 -61.902 C -101.334 -66.653 -100.68 -71.286 -99.373 -75.74 C -91.201 -47.233 -58.733 -25.912 -19.946 -25.912 C 18.842 -25.912 51.31 -47.233 59.482 -75.74 C 60.789 -71.286 61.443 -66.653 61.443 -61.902 C 61.443 -32.032 35.272 -6.98 0 0 M 2.438 -89.696 C -3.085 -86.668 -9.262 -84.589 -15.854 -83.58 C -21.615 -82.748 -27.316 -82.807 -32.72 -83.698 C -51.963 -86.727 -68.057 -99.852 -73.64 -118.144 C -64.612 -112.383 -53.269 -108.761 -40.797 -107.87 C -71.858 -184.007 -150.371 -237.992 -242.305 -237.992 C -295.815 -237.992 -344.811 -219.64 -382.523 -189.233 C -343.92 -236.329 -281.027 -266.974 -210.116 -266.974 C -106.125 -266.974 -19.536 -201.111 -0.947 -114.046 C 11.584 -118.975 22.036 -126.458 29.222 -135.426 C 29.995 -116.422 19.245 -98.902 2.438 -89.696 M -318.561 -25.912 C -320.877 -33.635 -322.065 -41.754 -322.065 -50.158 C -322.065 -98.991 -281.383 -138.568 -231.259 -138.568 C -181.134 -138.568 -140.453 -98.991 -140.453 -50.158 C -140.453 -41.754 -141.641 -33.635 -143.956 -25.912 C -154.765 -62.934 -189.805 -90.019 -231.259 -90.019 C -272.713 -90.019 -307.752 -62.934 -318.561 -25.912 M -395.724 -10.198 C -429.907 -10.198 -457.649 17.544 -457.649 51.727 C -457.649 81.592 -436.489 106.504 -408.392 112.307 C -463.17 141.394 -516.531 166.234 -516.531 166.234 C -479.801 161.918 -448.236 155.69 -422.122 149.108 C -401.952 144.083 -385.109 138.775 -371.733 134.104 C -346.963 125.4 -334.012 118.676 -334.012 118.676 C -307.543 126.249 -284.33 172.25 -284.33 172.25 C -279.023 98.507 -327.147 65.102 -327.147 65.102 C -330.332 67.226 -333.587 69.349 -337.055 71.542 C -336.913 71.26 -336.843 70.906 -336.772 70.623 C -337.692 71.613 -338.683 72.463 -339.744 73.241 C -340.735 73.949 -341.797 74.656 -343 75.294 C -348.449 78.337 -355.455 80.106 -362.957 80.106 C -380.721 80.106 -395.158 70.127 -395.158 57.813 C -395.158 45.499 -380.721 35.52 -362.957 35.52 C -350.077 35.52 -338.895 40.757 -333.87 48.401 C -335.64 15.775 -362.674 -10.198 -395.724 -10.198" style="fill: rgb(44, 46, 53); fill-opacity: 1;"/>
      </g>
    </g>
    <g style="clip-path: url(#clippath1);">
      <g transform="translate(2174.4905 143.7703)">
        <path d="M 0 0 C -12.158 9.165 -18.698 22.285 -19.621 39.364 L 28.623 39.364 C 29.084 33.566 30.776 29.336 33.701 26.673 C 36.622 24.008 40.395 22.678 45.011 22.678 C 49.166 22.678 52.589 23.736 55.284 25.851 C 57.974 27.966 59.323 30.903 59.323 34.664 C 59.323 39.519 57.091 43.278 52.629 45.944 C 48.164 48.607 40.933 51.584 30.931 54.874 C 20.313 58.477 11.733 61.961 5.194 65.332 C -1.349 68.7 -7.041 73.635 -11.888 80.138 C -16.735 86.638 -19.159 95.138 -19.159 105.637 C -19.159 116.289 -16.544 125.414 -11.311 133.015 C -6.081 140.613 1.154 146.371 10.387 150.288 C 19.621 154.203 30.083 156.164 41.78 156.164 C 60.708 156.164 75.827 151.658 87.138 142.651 C 98.448 133.639 104.486 120.989 105.258 104.696 L 56.091 104.696 C 55.936 109.709 54.436 113.469 51.59 115.977 C 48.741 118.481 45.087 119.737 40.626 119.737 C 37.239 119.737 34.469 118.716 32.316 116.682 C 30.159 114.644 29.084 111.747 29.084 107.987 C 29.084 104.851 30.274 102.148 32.663 99.879 C 35.046 97.606 38.007 95.649 41.549 94.004 C 45.087 92.359 50.321 90.28 57.245 87.776 C 67.553 84.17 76.058 80.608 82.752 77.083 C 89.446 73.558 95.217 68.622 100.064 62.278 C 104.912 55.932 107.335 47.901 107.335 38.189 C 107.335 28.318 104.912 19.465 100.064 11.633 C 95.217 3.797 88.212 -2.39 79.059 -6.933 C 69.902 -11.479 59.092 -13.748 46.627 -13.748 C 27.7 -13.748 12.154 -9.165 0 0 M -154.125 116.682 L -154.125 89.656 L -102.189 89.656 L -102.189 54.64 L -154.125 54.64 L -154.125 24.793 L -95.265 24.793 L -95.265 -12.103 L -199.368 -12.103 L -199.368 153.578 L -95.265 153.578 L -95.265 116.682 Z M -275.012 153.578 L -275.012 -12.103 L -320.255 -12.103 L -320.255 79.315 L -350.955 -12.103 L -388.81 -12.103 L -419.741 80.021 L -419.741 -12.103 L -464.984 -12.103 L -464.984 153.578 L -410.278 153.578 L -369.421 45.944 L -329.488 153.578 Z M -608.492 50.175 L -626.035 103.756 L -643.346 50.175 Z M -597.181 14.923 L -654.888 14.923 L -663.66 -12.103 L -711.21 -12.103 L -651.887 153.578 L -599.72 153.578 L -540.628 -12.103 L -588.409 -12.103 Z M -837.406 99.056 C -840.024 103.441 -843.602 106.812 -848.139 109.161 C -852.68 111.512 -858.029 112.687 -864.182 112.687 C -875.572 112.687 -884.534 108.927 -891.073 101.406 C -897.616 93.886 -900.883 83.781 -900.883 71.09 C -900.883 56.832 -897.385 45.981 -890.381 38.542 C -883.38 31.098 -873.184 27.379 -859.796 27.379 C -843.948 27.379 -832.637 34.664 -825.865 49.234 L -871.338 49.234 L -871.338 82.371 L -786.854 82.371 L -786.854 37.719 C -790.396 28.943 -795.589 20.717 -802.435 13.043 C -809.284 5.365 -817.941 -0.94 -828.403 -5.875 C -838.87 -10.811 -850.794 -13.278 -864.182 -13.278 C -880.495 -13.278 -894.922 -9.717 -907.462 -2.585 C -920.006 4.542 -929.701 14.49 -936.547 27.261 C -943.396 40.028 -946.819 54.64 -946.819 71.09 C -946.819 87.383 -943.396 101.913 -936.547 114.684 C -929.701 127.452 -920.042 137.399 -907.578 144.531 C -895.113 151.658 -880.726 155.223 -864.413 155.223 C -843.948 155.223 -827.018 150.207 -813.63 140.183 C -800.243 130.155 -791.933 116.447 -788.701 99.056 Z" style="fill: rgb(44, 46, 53); fill-opacity: 1;"/>
      </g>
    </g>
    <g style="clip-path: url(#clippath1);">
      <g transform="translate(3044.1589 920.1389)">
        <path d="M 0 0 C -19.225 0.655 -39.298 -18.615 -39.563 -37.98 C -39.833 -57.815 -23.045 -75.004 -2.576 -75.847 C 18.719 -76.724 37.523 -59.922 37.928 -39.655 C 38.326 -19.739 20.102 -0.685 0 0 M 38.115 -130.751 C 38.22 -115.575 33.021 -108.702 17.242 -109.77 C 4.204 -110.652 -8.954 -110.2 -22.041 -109.789 C -35.232 -109.376 -39.678 -115.64 -39.658 -128.352 C -39.456 -258.741 -39.524 -389.131 -39.709 -519.52 C -39.727 -531.542 -34.745 -537.132 -22.657 -536.87 C -9.563 -536.586 3.6 -535.98 16.627 -536.946 C 33.435 -538.191 38.288 -530.683 38.143 -514.813 C 37.569 -451.7 37.907 -388.579 37.915 -325.462 C 37.924 -260.558 37.667 -195.652 38.115 -130.751 M -349.055 -516.647 C -349.167 -531.083 -344.491 -537.747 -329.505 -536.93 C -316.427 -536.217 -303.274 -536.527 -290.166 -536.848 C -277.445 -537.158 -271.893 -531.794 -271.97 -518.67 C -272.464 -434.614 -272.579 -350.556 -272.727 -266.498 C -272.745 -255.776 -272.939 -244.979 -271.822 -234.346 C -269.242 -209.781 -257.924 -197.358 -233.521 -194.779 C -186.891 -189.851 -168.109 -203.995 -168.88 -249.185 C -168.941 -252.762 -168.917 -256.339 -168.919 -259.917 C -168.963 -345.173 -168.78 -430.431 -169.254 -515.685 C -169.339 -530.943 -164.093 -537.839 -148.431 -536.924 C -135.954 -536.196 -123.368 -536.225 -110.887 -536.922 C -95.786 -537.765 -91.454 -530.87 -91.534 -516.506 C -92.023 -428.867 -91.12 -341.216 -92.32 -253.591 C -92.667 -228.258 -95.166 -202.046 -102.28 -177.887 C -122.726 -108.456 -202.989 -87.33 -256.74 -135.43 C -260.184 -138.511 -265.756 -139.215 -270.339 -141.025 C -271.5 -136.726 -274.153 -132.208 -273.558 -128.167 C -271.312 -112.886 -279.083 -109.292 -292.202 -109.827 C -304.107 -110.312 -316.091 -110.604 -327.958 -109.788 C -343.271 -108.735 -349.24 -114.497 -349.091 -130.318 C -348.485 -194.701 -348.839 -259.094 -348.838 -323.483 C -348.837 -387.872 -348.553 -452.263 -349.055 -516.647 M 347.991 -128.421 C 348.072 -115.589 343.8 -109.446 330.563 -109.857 C 317.459 -110.264 304.303 -110.492 291.224 -109.784 C 275.935 -108.956 269.875 -114.881 270.169 -130.651 C 270.958 -172.968 270.531 -215.308 270.538 -257.638 C 270.545 -305.931 271.684 -354.272 269.745 -402.488 C 269.174 -416.681 263.776 -435.821 253.643 -443.384 C 234.344 -457.787 209.137 -456.341 186.933 -446.597 C 168.329 -438.434 167.315 -419.754 166.738 -402.109 C 166.504 -394.961 166.594 -387.801 166.595 -380.647 C 166.614 -297.773 166.383 -214.898 166.903 -132.027 C 167.002 -116.257 162.442 -108.302 145.492 -109.797 C 135.434 -110.684 125.235 -109.975 115.099 -109.972 C 92.029 -109.965 90.438 -111.556 90.448 -133.932 C 90.485 -209.055 90.266 -284.179 90.614 -359.3 C 90.738 -386.1 90.896 -413.016 93.395 -439.658 C 96.199 -469.546 108.295 -496.115 130.876 -516.695 C 161.97 -545.034 220.854 -543.067 252.219 -513.692 C 256.469 -509.711 263.029 -508.198 268.52 -505.542 C 269.377 -510.923 271.273 -516.381 270.877 -521.667 C 270.021 -533.109 276.174 -536.625 285.893 -536.735 C 300.796 -536.904 315.712 -536.456 330.605 -536.885 C 343.869 -537.267 348.064 -531.177 347.979 -518.326 C 347.546 -453.345 347.78 -388.358 347.79 -323.374 C 347.8 -258.389 347.577 -193.403 347.991 -128.421 M -941.84 -408.055 C -939.161 -435.56 -935.595 -464.593 -924.397 -489.321 C -900.539 -542.007 -830.218 -553.114 -786.703 -514.569 C -782.667 -510.994 -776.777 -509.512 -771.747 -507.058 C -770.49 -511.877 -770.191 -517.267 -767.741 -521.374 C -764.387 -527.001 -759.857 -535.439 -755.027 -536.023 C -739.76 -537.868 -723.965 -537.829 -708.709 -535.889 C -703.562 -535.234 -695.469 -526.766 -695.411 -521.79 C -694.679 -459.223 -695.251 -396.642 -695.279 -334.064 C -695.284 -323.669 -699.909 -318.367 -710.164 -318.326 C -741.756 -318.2 -773.349 -318.279 -804.941 -318.178 C -816.675 -318.14 -820.468 -324.639 -820.167 -335.353 C -819.783 -349.052 -819.307 -362.78 -819.777 -376.464 C -820.555 -399.103 -819.233 -400.173 -796.259 -400.981 C -787.439 -401.291 -772.147 -403.47 -771.291 -407.338 C -769.228 -416.661 -771.899 -428.573 -776.575 -437.358 C -780.309 -444.372 -789.047 -450.44 -796.885 -453.267 C -838.703 -468.351 -868.559 -448.284 -869.753 -404.089 C -870.734 -367.753 -870.205 -331.369 -869.978 -295.008 C -869.819 -269.402 -870.727 -243.624 -868.091 -218.242 C -865.19 -190.306 -849.066 -180.477 -815.033 -181.573 C -785.497 -182.523 -771.121 -195.297 -768.457 -222.63 C -767.178 -235.75 -770.071 -255.062 -762.839 -260.389 C -753.28 -267.43 -735.646 -263.601 -721.473 -264.233 C -716.726 -264.445 -711.284 -265.392 -707.36 -263.506 C -702.735 -261.284 -696.175 -256.473 -696.028 -252.574 C -694.526 -212.829 -696.639 -173.181 -722.446 -140.256 C -753.44 -100.714 -824.439 -87.247 -875.27 -109.443 C -897.863 -119.309 -918.416 -133.138 -926.505 -156.568 C -934.734 -180.405 -939.687 -205.956 -941.922 -231.126 C -944.496 -260.107 -942.52 -289.492 -942.505 -318.701 C -942.489 -348.507 -944.716 -378.529 -941.84 -408.055 M 637.625 -250.272 C 653.034 -250.819 662.128 -245.135 658.894 -228.189 C 655.368 -209.704 653.454 -190.494 646.859 -173.109 C 636.753 -146.467 617.866 -126.97 589.346 -118.485 C 550.007 -106.781 510.443 -106.477 471.115 -117.321 C 441.204 -125.568 420.334 -144.239 409.618 -174.349 C 396.127 -212.26 396.042 -250.728 405.671 -288.762 C 416.998 -333.502 447.73 -357.97 493.676 -362.572 C 510.26 -364.234 527.158 -363.506 543.544 -366.152 C 553.539 -367.766 566.713 -371.066 571.668 -378.276 C 583.798 -395.928 582.855 -416.898 574.54 -436.531 C 567.608 -452.897 551.425 -451.183 537.523 -452.576 C 529.89 -453.342 522.049 -452.365 514.325 -451.834 C 483.78 -449.734 478.576 -444.774 477.333 -414.009 C 476.814 -401.164 471.578 -395.325 458.687 -396.24 C 453.347 -396.619 447.957 -396.246 442.593 -396.351 C 401.543 -397.153 394.501 -385.132 401.873 -442.591 C 407.142 -483.664 426.334 -515.675 467.026 -528.475 C 507.585 -541.233 549.59 -540.45 590.416 -528.224 C 611.384 -521.944 628.135 -508.485 639.235 -488.639 C 662.602 -446.866 664.992 -403.598 651.638 -358.134 C 639.423 -316.546 612.879 -291.924 570.3 -285.512 C 550.918 -282.593 531.138 -282.425 511.609 -280.355 C 486.076 -277.649 477.015 -267.596 476.29 -242.301 C 476.154 -237.539 476.181 -232.75 476.522 -228.002 C 477.951 -208.093 487.335 -197.222 507.224 -194.822 C 519.575 -193.331 532.228 -193.549 544.704 -194.043 C 570.294 -195.058 577.797 -201.812 578.105 -227.772 C 578.311 -245.152 585.324 -251.704 601.859 -250.307 C 607.187 -249.857 612.585 -250.236 617.951 -250.234 C 624.51 -250.233 631.075 -250.039 637.625 -250.272 M -522.86 -309.576 C -510.353 -309.576 -497.516 -311.24 -485.479 -308.861 C -479.615 -307.703 -471.367 -299.319 -470.898 -293.65 C -469.282 -274.148 -469.971 -254.367 -471.002 -234.756 C -472.262 -210.767 -483.008 -198.317 -506.59 -195.048 C -547.56 -189.369 -577.031 -200.919 -574.264 -250.165 C -574.098 -253.134 -574.285 -256.121 -574.235 -259.099 C -573.284 -315.71 -584.622 -309.434 -522.86 -309.576 M -650.193 -322.438 C -650.193 -293.239 -651.225 -263.995 -649.933 -234.854 C -648.314 -198.371 -640.692 -162.625 -610.463 -138.797 C -595.218 -126.781 -575.589 -117.03 -556.628 -113.671 C -508.458 -105.138 -460.952 -106.896 -424.535 -147.122 C -402.227 -171.763 -394.21 -202.431 -393.286 -234.485 C -391.911 -282.121 -392.834 -329.82 -392.254 -377.485 C -392.078 -391.969 -400.411 -393.975 -411.844 -393.94 C -457.728 -393.802 -503.613 -393.884 -549.497 -393.866 C -574.106 -393.857 -580.421 -402.863 -571.433 -425.792 C -565.447 -441.062 -554.069 -450.286 -537.615 -450.855 C -506.087 -451.947 -474.525 -452.423 -442.976 -452.471 C -420.697 -452.504 -418.397 -454.679 -419.244 -476.648 C -419.771 -490.317 -419.866 -504.101 -418.7 -517.709 C -417.567 -530.917 -422.791 -536.883 -435.601 -536.773 C -471.346 -536.468 -507.212 -537.807 -542.807 -535.317 C -600.907 -531.252 -636.792 -497.795 -646.537 -440.145 C -649.79 -420.901 -649.755 -401.036 -650.36 -381.428 C -650.966 -361.782 -650.493 -342.102 -650.493 -322.438 C -650.393 -322.438 -650.293 -322.438 -650.193 -322.438" style="fill: rgb(44, 46, 53); fill-opacity: 1;"/>
      </g>
    </g>
    <g style="clip-path: url(#clippath1);">
      <g transform="translate(1868.7185 921.2006)">
        <path d="M 0 0 C -18.807 0.676 -39.757 -19.469 -39.897 -38.364 C -40.039 -57.606 -22.177 -75.374 -1.942 -76.119 C 19.536 -76.909 36.87 -60.245 37.157 -38.53 C 37.414 -19.121 19.656 -0.707 0 0 M -40.135 -517.277 C -40.277 -532.394 -34.48 -537.737 -20.11 -536.966 C -8.223 -536.328 3.773 -536.137 15.633 -536.982 C 32.163 -538.16 37.624 -531.038 37.392 -514.899 C 36.689 -466.035 37.103 -417.153 37.107 -368.279 C 37.114 -289.602 36.954 -210.925 37.334 -132.25 C 37.403 -118.057 34.416 -108.954 17.734 -109.833 C 4.657 -110.522 -8.503 -110.414 -21.592 -109.86 C -35.676 -109.264 -40.198 -115.62 -40.101 -129.271 C -39.642 -193.638 -39.896 -258.01 -39.885 -322.38 C -39.874 -387.347 -39.524 -452.316 -40.135 -517.277 M 166.419 -269.443 C 166.419 -186.587 166.205 -103.729 166.616 -20.875 C 166.691 -5.873 161.994 1.954 146.04 0.348 C 141.907 -0.068 137.701 0.23 133.528 0.229 C 80.996 0.215 89.092 4.725 89.034 -44.415 C 88.847 -201.783 89.009 -359.152 88.591 -516.52 C 88.553 -530.888 92.752 -537.785 107.871 -536.945 C 120.35 -536.252 132.929 -536.269 145.409 -536.966 C 160.595 -537.815 166.693 -532.047 166.59 -516.223 C 166.056 -433.966 166.342 -351.703 166.342 -269.443 C 166.367 -269.443 166.393 -269.443 166.419 -269.443 M -349.468 -322.31 C -349.468 -388.419 -349.233 -454.531 -349.665 -520.638 C -349.752 -533.926 -343.132 -536.905 -331.961 -536.859 C -283.711 -536.659 -235.459 -536.752 -187.208 -536.522 C -156.083 -536.374 -130.134 -523.642 -116.51 -496.073 C -105.448 -473.687 -95.162 -448.281 -94.399 -423.905 C -91.305 -325.114 -92.042 -226.204 -91.306 -127.338 C -91.218 -115.535 -96.598 -109.698 -108.618 -109.884 C -122.316 -110.097 -136.049 -110.527 -149.713 -109.814 C -164.752 -109.028 -169.262 -115.809 -169.181 -130.158 C -168.7 -215.938 -168.826 -301.721 -168.838 -387.503 C -168.839 -397.025 -168.727 -406.627 -169.851 -416.051 C -172.203 -435.768 -183.031 -447.933 -202.682 -450.455 C -219.723 -452.643 -237.096 -452.527 -254.333 -452.832 C -267.484 -453.065 -273.106 -446.655 -273.008 -432.801 C -272.282 -330.949 -272.22 -229.092 -271.647 -127.238 C -271.584 -116.131 -275.635 -110.097 -286.872 -110.002 C -302.954 -109.866 -319.038 -110.057 -335.121 -110.109 C -345.562 -110.142 -349.709 -115.243 -349.668 -125.774 C -349.413 -191.284 -349.54 -256.796 -349.54 -322.308 C -349.516 -322.308 -349.492 -322.309 -349.468 -322.31 M -508.625 -309.7 C -496.141 -309.7 -483.413 -311.132 -471.281 -309.065 C -465.648 -308.105 -457.003 -300.445 -456.882 -295.641 C -456.284 -271.954 -456.856 -248.057 -459.708 -224.56 C -460.699 -216.39 -467.73 -206.262 -474.938 -202.047 C -495.662 -189.926 -518.393 -190.686 -540.145 -200.149 C -559.645 -208.632 -558.932 -227.136 -559.601 -244.477 C -559.784 -249.227 -559.835 -253.989 -559.745 -258.743 C -558.701 -314.431 -570.346 -309.706 -508.625 -309.7 M -640.417 -329.136 C -640.417 -299.129 -642.12 -274.555 -639.923 -250.335 C -637.856 -227.557 -634.22 -204.269 -626.76 -182.772 C -612.201 -140.816 -580.95 -116.85 -536.586 -111.925 C -493.658 -107.159 -451.752 -108.705 -417.307 -140.242 C -391.877 -163.526 -382.675 -194.529 -381.293 -227.06 C -379.145 -277.602 -380.02 -328.273 -379.663 -378.889 C -379.557 -393.836 -390.309 -393.908 -400.802 -393.922 C -444.281 -393.979 -487.762 -393.704 -531.237 -394.108 C -541.676 -394.204 -555.319 -389.227 -559.382 -405.282 C -563.354 -420.975 -555.054 -440.869 -540.659 -445.904 C -528.545 -450.141 -515.207 -452.216 -502.325 -452.638 C -476.156 -453.497 -449.906 -453.179 -423.735 -452.168 C -410.423 -451.654 -405.023 -456.934 -405.098 -469.594 C -405.2 -486.864 -405.073 -504.136 -405.15 -521.407 C -405.195 -531.442 -409.891 -537.031 -420.419 -536.808 C -460.282 -535.963 -500.308 -537.091 -539.968 -533.801 C -586.165 -529.969 -618.447 -495.827 -631.83 -451.001 C -644.494 -408.584 -637.808 -366.003 -640.417 -329.136" style="fill: rgb(255, 49, 43); fill-opacity: 1;"/>
      </g>
    </g>
  </g>
</svg>