<?xml version="1.0" encoding="utf-8"?>
<svg style="height: 512px; width: 512px;" viewBox="0 0 512 512" width="512" height="512" xmlns="http://www.w3.org/2000/svg">
  <defs>
    <linearGradient x1="0" x2="0" y1="0" y2="1" id="delapouite-airplane-departure-gradient-0">
      <stop offset="0" stop-color="#b9b9b9" stop-opacity="1"/>
      <stop offset="1" stop-color="#666666" stop-opacity="1"/>
    </linearGradient>
  </defs>
  <rect fill="url(#delapouite-airplane-departure-gradient-0)" height="512" width="512" rx="64" ry="64"/>
  <g class="" style="" transform="translate(0,0)">
    <path d="M 413.602 153.906 C 412.002 153.916 410.402 153.966 408.802 154.066 C 395.602 154.796 381.902 157.866 372.002 162.806 L 371.802 162.926 L 90.802 283.136 L 86.702 280.536 C 66.082 267.236 44.552 253.736 12.862 248.436 C 14.932 253.136 17.502 258.336 20.622 263.936 C 27.312 275.836 35.882 289.236 44.372 301.536 C 52.862 313.736 61.332 324.836 67.582 331.936 C 69.992 334.736 71.602 336.236 73.002 337.536 L 245.202 268.936 L 244.002 283.336 C 240.302 327.736 232.702 372.936 220.502 419.036 L 249.002 400.036 C 281.602 348.536 292.502 312.836 320.002 242.736 L 321.202 239.736 L 412.702 189.236 L 412.902 189.236 C 435.802 177.746 445.702 167.586 447.302 163.876 C 448.102 162.016 447.902 162.506 447.502 161.836 C 447.102 161.176 445.202 159.446 441.702 157.986 C 436.302 155.786 427.902 154.266 418.402 153.956 C 416.902 153.906 415.202 153.886 413.602 153.906 Z M 130.602 165.646 L 108.502 170.046 L 193.002 219.836 L 253.102 194.136 C 219.002 183.496 181.802 173.516 130.602 165.646 Z" fill="#ffffff" fill-opacity="1" transform="matrix(0.920505, 0.390731, -0.390731, 0.920505, 130.243784, -67.234863)"/>
  </g>
</svg>