<?xml version="1.0" encoding="utf-8"?>
<svg style="height: 512px; width: 512px;" viewBox="0 0 512 512" width="512" height="512" xmlns="http://www.w3.org/2000/svg">
  <defs>
    <linearGradient x1="0" x2="0" y1="0" y2="1" id="delapouite-jeep-gradient-0">
      <stop offset="0" stop-color="#b9b9b9" stop-opacity="1"/>
      <stop offset="1" stop-color="#666666" stop-opacity="1"/>
    </linearGradient>
  </defs>
  <rect fill="url(#delapouite-jeep-gradient-0)" height="512" width="512" rx="64" ry="64"/>
  <g class="" style="" transform="translate(0,0)">
    <path d="M 328.56 161.928 C 326.174 163.728 323.181 165.641 319.679 167.565 L 325.767 182.109 L 341.652 181.369 C 344.782 183.843 346.304 186.475 346.887 188.999 L 425.871 188.999 L 425.871 236.999 L 454.771 236.999 L 444.105 293.365 L 436.883 293.365 C 419.125 277.141 394.441 269.281 371.145 271.399 C 348.46 273.462 326.81 285.976 316.59 309.366 L 199.246 309.366 C 193.802 297.838 184.252 289.109 173.072 283.274 C 160.179 276.549 145.013 273.366 129.869 273.366 C 122.638 273.366 75.923 253.278 59.568 244.144 C 57.099 242.765 57.87 205 57.87 205 L 188.105 205 L 204.105 252.258 L 311.684 252.258 L 311.684 198.8 C 311.651 197.505 311.69 196.358 311.795 195.346 L 303.249 174.927 C 290.783 179.485 275.125 183.217 256.879 184.327 L 255.785 166.362 C 286.737 164.479 310.681 152.87 317.722 147.559 L 328.56 161.928 Z M 457.87 188.88 L 457.87 220.88 L 441.87 220.88 L 441.87 188.88 L 457.87 188.88 Z M 265.869 221 L 265.869 237 L 215.635 237 L 210.302 221 L 265.869 221 Z M 177.869 349.366 C 177.869 375.876 156.379 397.366 129.869 397.366 C 103.359 397.366 81.869 375.876 81.869 349.366 C 81.869 322.856 103.359 301.366 129.869 301.366 C 156.379 301.366 177.869 322.856 177.869 349.366 Z M 431.426 349.366 C 431.426 375.876 409.936 397.366 383.426 397.366 C 356.916 397.366 335.426 375.876 335.426 349.366 C 335.426 322.856 356.916 301.366 383.426 301.366 C 409.936 301.366 431.426 322.856 431.426 349.366 Z M 305.869 325.366 L 305.869 341.366 L 209.869 341.366 L 209.869 325.366 L 305.869 325.366 Z M 113.869 349.366 C 113.869 358.203 121.032 365.366 129.869 365.366 C 138.706 365.366 145.869 358.203 145.869 349.366 C 145.869 340.529 138.706 333.366 129.869 333.366 C 121.032 333.366 113.869 340.529 113.869 349.366 Z M 367.426 349.366 C 367.426 358.203 374.589 365.366 383.426 365.366 C 392.263 365.366 399.426 358.203 399.426 349.366 C 399.426 340.529 392.263 333.366 383.426 333.366 C 374.589 333.366 367.426 340.529 367.426 349.366 Z" fill="#ffffff" fill-opacity="1"/>
  </g>
</svg>