<?xml version="1.0" encoding="utf-8"?>
<svg style="height: 512px; width: 512px;" viewBox="0 0 512 512" width="512" height="512" xmlns="http://www.w3.org/2000/svg">
  <defs>
    <linearGradient x1="0" x2="0" y1="0" y2="1" id="delapouite-jeep-gradient-0">
      <stop offset="0" stop-color="#b9b9b9" stop-opacity="1"/>
      <stop offset="1" stop-color="#666666" stop-opacity="1"/>
    </linearGradient>
  </defs>
  <rect fill="url(#delapouite-jeep-gradient-0)" height="512" width="512" rx="64" ry="64"/>
  <g class="" style="" transform="translate(0,0)">
    <path d="M155.605 114.634l-14.31 7.154 3.576 7.156 13.423 26.844-57.578 57.578h22.625l42.494-42.494 21.248 42.494h17.89l-45.788-91.578-3.58-7.154zm132.422 2.732v24c0 11.313 5.527 24.452 12.13 39.47 6.345 14.432 13.97 29.757 19.87 42.33v54.2h-93.765l-16-48H80.027v80h2.623c5.445-11.528 14.993-20.257 26.176-26.092 12.89-6.725 28.058-9.908 43.2-9.908 15.144 0 30.31 3.183 43.203 9.908 11.18 5.835 20.73 14.564 26.174 26.092h117.344c10.22-23.39 31.87-35.904 54.555-37.967 23.296-2.118 47.98 5.742 65.738 21.966h7.222l10.666-32h-28.9v-48H333.09c-5.778-12.2-12.63-26.108-18.285-38.97-6.367-14.482-10.778-28.342-10.778-33.03v-24h-16zm-256.054 72v80h32v-80h-32zm432.054 23.88v32h16v-32h-16zm-231.568 32.12l5.333 16h50.234v-16H232.46zm-184.433 40v24.303h16v-24.304h-16zm104 16a48 48 0 0 0-48 48 48 48 0 0 0 48 48 48 48 0 0 0 48-48 48 48 0 0 0-48-48zm253.557 0a48 48 0 0 0-48 48 48 48 0 0 0 48 48 48 48 0 0 0 48-48 48 48 0 0 0-48-48zm-173.557 24v16h96v-16h-96zm-80 8a16 16 0 0 1 16 16 16 16 0 0 1-16 16 16 16 0 0 1-16-16 16 16 0 0 1 16-16zm253.557 0a16 16 0 0 1 16 16 16 16 0 0 1-16 16 16 16 0 0 1-16-16 16 16 0 0 1 16-16z" fill="#ffffff" fill-opacity="1"/>
  </g>
</svg>