<?xml version="1.0" encoding="utf-8"?>
<svg style="height: 512px; width: 512px;" viewBox="0 0 512 512" width="512" height="512" xmlns="http://www.w3.org/2000/svg">
  <defs>
    <linearGradient x1="0" x2="0" y1="0" y2="1" id="skoll-jeep-gradient-0">
      <stop offset="0" stop-color="#b9b9b9" stop-opacity="1"/>
      <stop offset="1" stop-color="#666666" stop-opacity="1"/>
    </linearGradient>
  </defs>
  <rect fill="url(#skoll-jeep-gradient-0)" height="512" width="512" rx="64" ry="64"/>
  <g class="" style="" transform="translate(0,0)">
    <path d="M 456.526 319.377 C 456.526 270.949 404.101 240.681 362.161 264.895 C 320.221 289.109 320.221 349.645 362.161 373.859 C 371.725 379.38 382.572 382.287 393.615 382.287 C 428.359 382.287 456.525 354.121 456.525 319.377 L 456.526 319.377 Z M 177.321 319.377 C 177.321 270.949 124.896 240.681 82.956 264.895 C 41.016 289.109 41.016 349.645 82.956 373.859 C 92.52 379.38 103.368 382.287 114.411 382.287 C 149.155 382.287 177.321 354.121 177.321 319.377 Z M 486 311.894 C 486.001 318.232 483.078 324.216 478.078 328.11 C 484.806 263.088 418.623 215.166 358.948 241.85 C 323.962 257.494 303.791 294.634 309.716 332.498 L 198.31 332.498 C 208.391 267.922 144.785 216.649 83.82 240.207 C 51.298 252.774 29.765 283.947 29.522 318.812 C 26.671 313.81 25.503 308.024 26.193 302.308 L 42.946 159.143 C 44.293 147.592 54.079 138.882 65.708 138.883 L 307.612 138.883 C 312.213 138.885 316.558 141 319.399 144.619 L 363.411 200.708 L 468.794 223.649 L 486 311.894 Z M 337.815 203.899 L 301.959 153.243 L 208.694 153.243 L 208.694 203.926 L 337.829 203.926 L 337.815 203.899 Z" fill="#ffffff" fill-opacity="1"/>
  </g>
</svg>