<?xml version="1.0" encoding="utf-8"?>
<svg style="height: 512px; width: 512px;" viewBox="0 0 512 512" width="512" height="512" xmlns="http://www.w3.org/2000/svg">
  <defs>
    <linearGradient x1="0" x2="0" y1="0" y2="1" id="delapouite-mechanic-garage-gradient-0">
      <stop offset="0" stop-color="#b9b9b9" stop-opacity="1"/>
      <stop offset="1" stop-color="#666666" stop-opacity="1"/>
    </linearGradient>
  </defs>
  <rect fill="url(#delapouite-mechanic-garage-gradient-0)" height="512" width="512" rx="64" ry="64"/>
  <g class="" style="" transform="matrix(1, 0, 0, 1, 0, 19.118273)">
    <path d="M 160.01 183 C 152.01 183 146.18 187.038 139.844 191.813 C 133.508 196.587 126.864 202.757 119.803 209.483 C 106.051 222.579 90.7 237.773 76.195 247.701 L 121.602 248.836 C 132.772 227.888 139.879 208.45 160.01 201 L 231.01 201 L 231.01 251.572 L 249.01 252.022 L 249.01 201 L 272.01 201 C 283.51 201 302.958 211.484 322.387 227.027 C 332.87 235.414 343.451 245.037 353.504 254.635 L 379.939 255.252 C 365.987 241.427 349.987 226.056 333.633 212.972 C 313.06 196.517 292.51 183 272.01 183 L 160.01 183 Z M 47.986 265.004 C 42.991 265.012 36.952 267.784 32.373 272.364 C 27.787 276.948 25.01 283 25.01 288 C 25.01 301 32.286 320.26 41.643 335.23 C 45.998 342.2 50.766 348.286 55.023 352.543 C 55.022 352.361 55.01 352.183 55.01 352 C 55.01 320.626 80.636 295 112.01 295 C 143.383 295 169.01 320.626 169.01 352 C 169.01 354.37 168.847 356.704 168.563 359 L 359.457 359 C 359.164 356.678 359.015 354.34 359.01 352 C 359.01 320.626 384.636 295 416.01 295 C 447.383 295 473.01 320.626 473.01 352 C 473.01 354.37 472.847 356.704 472.563 359 L 481.955 359 L 486.99 313.674 C 486.884 300.851 480.714 291.689 472.387 285.027 C 463.987 278.307 453.01 275 448.01 275 L 447.896 275 L 47.986 265.004 Z M 112.01 313 C 90.364 313 73.01 330.354 73.01 352 C 73.01 373.646 90.364 391 112.01 391 C 133.655 391 151.01 373.646 151.01 352 C 151.01 330.354 133.655 313 112.01 313 Z M 416.01 313 C 394.364 313 377.01 330.354 377.01 352 C 377.01 373.646 394.364 391 416.01 391 C 437.655 391 455.01 373.646 455.01 352 C 455.01 330.354 437.655 313 416.01 313 Z" fill="#ffffff" fill-opacity="1"/>
  </g>
  <g class="" style="" transform="matrix(0.764443, 0, 0, 0.764443, 95.198982, 51.607769)">
    <path d="M 143.55 44.06 L 144.953 131.94 L 107.861 102.2 L 128 153 L 67.06 157.07 L 129.494 186.94 L 136.514 186.94 L 152.514 138.94 L 229.486 138.94 L 245.486 186.94 L 253.496 186.94 L 318.561 167.736 L 262.024 153.559 L 287 83.94 L 237.047 130.535 L 233.535 76.367 L 187.488 125.619 L 143.548 44.059 L 143.55 44.06 Z M 165.486 156.94 L 155.486 186.94 L 226.514 186.94 L 216.514 156.94 L 165.486 156.94 Z" fill="#ffffff" fill-opacity="1"/>
  </g>
</svg>