<?xml version="1.0" encoding="utf-8"?>
<svg style="height: 512px; width: 512px;" viewBox="0 0 512 512" width="512" height="512" xmlns="http://www.w3.org/2000/svg">
  <defs>
    <linearGradient x1="0" x2="0" y1="0" y2="1" id="delapouite-caravan-gradient-0">
      <stop offset="0" stop-color="#b9b9b9" stop-opacity="1"/>
      <stop offset="1" stop-color="#666666" stop-opacity="1"/>
    </linearGradient>
  </defs>
  <rect fill="url(#delapouite-caravan-gradient-0)" height="512" width="512" rx="64" ry="64"/>
  <g class="" style="" transform="translate(0,0)">
    <path d="M60.5 129c-5 0-16.557 3.44-25.322 8.773S21.5 150.095 21.5 152.672V335h105.063c6.948-18.637 24.952-32 45.937-32 20.985 0 38.99 13.363 45.938 32H275.5V175h98v160h31.97c3.642-14.619 13.747-56.938 14.03-79.115.399-31.276-15.2-98.237-15.615-100.012-1.874-5.313-8.415-12.755-16.512-18.14-8.178-5.44-17.92-8.733-22.873-8.733zm-9 46h170v82h-170v-82zm41.963 18L69.5 227.36V239h13.828l32.08-46zm44.844 0l-32.08 46h43.888l32.08-46zm155.193 0v142h62v-62h-23v-18h23v-62zm143.104 77.113c-1.55 14.901-4.853 31.89-8.01 46.08l22.906-3.818v-34.813zM172.5 321c-17.227 0-31 13.773-31 31s13.773 31 31 31 31-13.773 31-31-13.773-31-31-31zm251.637 14c-1.498 6.021-3.126 12.008-4.735 18H492.5v-18z" fill="#ffffff" fill-opacity="1"/>
  </g>
</svg>