<?xml version="1.0" encoding="utf-8"?>
<svg style="height: 512px; width: 512px;" viewBox="0 0 512 512" width="512" height="512" xmlns="http://www.w3.org/2000/svg">
  <defs>
    <linearGradient x1="0" x2="0" y1="0" y2="1" id="delapouite-bus-gradient-0">
      <stop offset="0" stop-color="#b9b9b9" stop-opacity="1"/>
      <stop offset="1" stop-color="#666666" stop-opacity="1"/>
    </linearGradient>
  </defs>
  <rect fill="url(#delapouite-bus-gradient-0)" height="512" width="512" rx="64" ry="64"/>
  <g class="" style="" transform="translate(0,0)">
    <path d="M 253 170 L 315 170 C 323.284 170 330 176.716 330 185 L 330 200 C 330 208.284 323.284 215 315 215 L 253 215 C 244.716 215 238 208.284 238 200 L 238 185 C 238 176.716 244.716 170 253 170 Z M 47 145 C 37 145 24 157.4 24 169.9 L 24 308.956 L 105.204 311.7 C 113.684 297 129.614 287 147.714 287 C 168.714 287 186.714 300.3 193.614 319 L 320.452 319 C 327.352 300.3 345.352 287 366.352 287 C 387.352 287 405.352 300.3 412.252 319 L 488 319 L 488 241.8 L 456.5 145 L 47 145 Z M 364.321 159 L 443.6 159 L 469.2 241 L 469.21 303.678 L 420.477 303.342 C 401.102 274.17 384.481 271.853 364.321 272.672 L 364.321 159 Z M 382.6 177 L 382.6 223 L 444.8 223 L 430.4 177 L 382.6 177 Z M 147.714 305 C 130.514 305 116.714 318.8 116.714 336 C 116.714 353.2 130.514 367 147.714 367 C 164.914 367 178.714 353.2 178.714 336 C 178.714 318.8 164.914 305 147.714 305 Z M 366.352 305 C 349.152 305 335.352 318.8 335.352 336 C 335.352 353.2 349.152 367 366.352 367 C 383.552 367 397.352 353.2 397.352 336 C 397.352 318.8 383.552 305 366.352 305 Z M 147.714 328 C 152.132 328 155.714 331.582 155.714 336 C 155.714 340.418 152.132 344 147.714 344 C 143.296 344 139.714 340.418 139.714 336 C 139.714 331.582 143.296 328 147.714 328 Z M 366.352 328 C 370.77 328 374.352 331.582 374.352 336 C 374.352 340.418 370.77 344 366.352 344 C 361.934 344 358.352 340.418 358.352 336 C 358.352 331.582 361.934 328 366.352 328 Z M 150.028 170 L 212.028 170 C 220.312 170 227.028 176.716 227.028 185 L 227.028 200 C 227.028 208.284 220.312 215 212.028 215 L 150.028 215 C 141.744 215 135.028 208.284 135.028 200 L 135.028 185 C 135.028 176.716 141.744 170 150.028 170 Z" style="fill: rgb(255, 255, 255);"/>
  </g>
</svg>