<?xml version="1.0" encoding="utf-8"?>
<svg style="height: 512px; width: 512px;" viewBox="0 0 512 512" xmlns="http://www.w3.org/2000/svg" width="512" height="512">
  <defs>
    <linearGradient x1="0" x2="0" y1="0" y2="1" id="delapouite-submarine-gradient-0">
      <stop offset="0" stop-color="#b9b9b9" stop-opacity="1"/>
      <stop offset="1" stop-color="#666666" stop-opacity="1"/>
    </linearGradient>
  </defs>
  <rect fill="url(#delapouite-submarine-gradient-0)" height="512" width="512" rx="64" ry="64"/>
  <g class="" style="" transform="translate(0,0)">
    <path d="M315 144v21.75L292 160l-16 80H164c-49.154 16.385-81.254 27.1-102.578 34.846L52 256l-16-16v44.918C20.047 292.31 20 296.316 20 304c0 7.712.05 11.717 16 19.162V368l16-16 9.352-18.703c21.094 7.734 52.752 18.418 101.072 34.703H372c160-16 160-128 0-128h-16v-64l-23-5.75V144h-18zM148 263h256v18H148v-18z" fill="#ffffff" fill-opacity="1"/>
  </g>
</svg>