<?xml version="1.0" encoding="utf-8"?>
<svg style="height: 512px; width: 512px;" viewBox="0 0 512 512" width="512" height="512" xmlns="http://www.w3.org/2000/svg">
  <defs>
    <linearGradient x1="0" x2="0" y1="0" y2="1" id="skoll-jeep-gradient-0">
      <stop offset="0" stop-color="#b9b9b9" stop-opacity="1"/>
      <stop offset="1" stop-color="#666666" stop-opacity="1"/>
    </linearGradient>
  </defs>
  <rect fill="url(#skoll-jeep-gradient-0)" height="512" width="512" rx="64" ry="64"/>
  <g class="" style="" transform="translate(0,0)">
    <path d="M240.287 127.394l-23.78-19.145 108.861-13.892 2.751 21.828zM180.746 107.7h-62.91l-17.88 44.576h136.067zm275.78 247.033a62.91 62.91 0 1 0-62.911 62.91 62.91 62.91 0 0 0 62.91-62.91zm-279.205 0a62.91 62.91 0 1 0-62.91 62.91 62.91 62.91 0 0 0 62.91-62.91zM486 347.25a20.548 20.548 0 0 1-7.922 16.216 84.917 84.917 0 1 0-168.362 4.388H198.31a84.903 84.903 0 1 0-168.788-13.686 26.834 26.834 0 0 1-3.329-16.504l16.753-143.165a22.914 22.914 0 0 1 22.762-20.26h241.904a14.992 14.992 0 0 1 11.787 5.736l44.012 56.089 105.383 22.941zM337.815 239.255l-35.856-50.656h-93.265v50.683h129.135z" fill="#ffffff" fill-opacity="1"/>
  </g>
</svg>