<?xml version="1.0" encoding="utf-8"?>
<svg style="height: 512px; width: 512px;" viewBox="0 0 512 512" width="512" height="512" xmlns="http://www.w3.org/2000/svg">
  <defs>
    <linearGradient x1="0" x2="0" y1="0" y2="1" id="skoll-flatbed-gradient-0">
      <stop offset="0" stop-color="#b9b9b9" stop-opacity="1"/>
      <stop offset="1" stop-color="#666666" stop-opacity="1"/>
    </linearGradient>
  </defs>
  <rect fill="url(#skoll-flatbed-gradient-0)" height="512" width="512" rx="64" ry="64"/>
  <g class="" style="" transform="translate(0,0)">
    <path d="M97.597 296.31l-60.152-6.047v-23.826h81.745a54.402 54.402 0 0 0-21.593 29.872zM491 311.183a36.866 36.866 0 1 1-36.876-36.866A36.866 36.866 0 0 1 491 311.184zm-6.433 0a30.443 30.443 0 1 0-30.443 30.443 30.474 30.474 0 0 0 30.453-30.443zm-30.433-13.142a13.1 13.1 0 1 0 13.1 13.101 13.1 13.1 0 0 0-13.1-13.1zm-267.543 13.142a36.866 36.866 0 1 1-36.876-36.866 36.866 36.866 0 0 1 36.876 36.866zm-36.876-30.473a30.443 30.443 0 1 0 30.443 30.442 30.474 30.474 0 0 0-30.443-30.442zm0 17.331a13.1 13.1 0 1 0 13.1 13.101 13.1 13.1 0 0 0-13.1-13.1zm118.713-103.767H21v55.85h247.428v-55.85zm219.626 64.393v10.287a54.167 54.167 0 0 0-88.138 42.24H282.1a25.57 25.57 0 0 0-22.256-13.153h-57.522a54.371 54.371 0 0 0-22.113-31.605h104.705v-93.572a12.51 12.51 0 0 1 12.51-12.51h67.604a12.51 12.51 0 0 1 12.51 12.51v2.723h-7.922v44.695h80.093a38.385 38.385 0 0 1 38.345 38.375zm-125.748-83.08H309.29V228h53.016v-52.413z" fill="#ffffff" fill-opacity="1"/>
  </g>
</svg>