<?xml version="1.0" encoding="utf-8"?>
<svg style="height: 512px; width: 512px;" viewBox="0 0 512 512" width="512" height="512" xmlns="http://www.w3.org/2000/svg">
  <defs>
    <linearGradient x1="0" x2="0" y1="0" y2="1" id="delapouite-truck-gradient-0">
      <stop offset="0" stop-color="#b9b9b9" stop-opacity="1"/>
      <stop offset="1" stop-color="#666666" stop-opacity="1"/>
    </linearGradient>
  </defs>
  <rect fill="url(#delapouite-truck-gradient-0)" height="512" width="512" rx="64" ry="64"/>
  <g class="" style="" transform="matrix(1, 0, 0, 1, -53.478676, -29.209429)">
    <path d="M 353 169.377 L 353 309.647 L 361 309.621 L 361 326 L 364.81 326 C 374.108 307.086 393.584 294 416 294 C 435.463 294 452.707 303.867 463 318.846 L 463 262 L 479 262 L 479 225.725 L 450.744 183.34 L 353 169.377 Z M 371.543 188.893 L 436.313 196.619 L 461.113 232.129 L 461.113 248.864 L 371.543 248.864 L 371.543 188.892 L 371.543 188.893 Z M 481 280 L 481 326 L 495 326 L 495 280 L 481 280 Z M 176 310 C 153.463 310 135 328.463 135 351 C 135 373.537 153.463 392 176 392 C 198.537 392 217 373.537 217 351 C 217 328.463 198.537 310 176 310 Z M 416 310 C 393.463 310 375 328.463 375 351 C 375 373.537 393.463 392 416 392 C 438.537 392 457 373.537 457 351 C 457 328.463 438.537 310 416 310 Z M 120.982 312 C 120.953 316.302 121.324 325.985 121.313 326 L 124.81 326 C 127.342 320.85 130.634 316.14 134.53 312 L 120.982 312 Z M 217.47 312 C 221.366 316.14 224.658 320.85 227.19 326 L 231 326 L 231 312 L 217.47 312 Z M 343 327.678 L 249 327.973 L 249 357.973 L 343 357.678 L 343 327.678 Z M 176 328 C 188.81 328 199 338.19 199 351 C 199 363.81 188.81 374 176 374 C 163.19 374 153 363.81 153 351 C 153 338.19 163.19 328 176 328 Z M 416 328 C 428.81 328 439 338.19 439 351 C 439 363.81 428.81 374 416 374 C 403.19 374 393 363.81 393 351 C 393 338.19 403.19 328 416 328 Z" fill="#ffffff" fill-opacity="1"/>
  </g>
</svg>