<?xml version="1.0" encoding="utf-8"?>
<svg style="height: 512px; width: 512px;" viewBox="0 0 512 512" width="512" height="512" xmlns="http://www.w3.org/2000/svg">
  <defs>
    <linearGradient x1="0" x2="0" y1="0" y2="1" id="delapouite-surfer-van-gradient-0">
      <stop offset="0" stop-color="#b9b9b9" stop-opacity="1"/>
      <stop offset="1" stop-color="#666666" stop-opacity="1"/>
    </linearGradient>
  </defs>
  <rect fill="url(#delapouite-surfer-van-gradient-0)" height="512" width="512" rx="64" ry="64"/>
  <g class="" style="" transform="translate(0,0)">
    <path d="M 83.87 135.997 C 69.37 135.997 54.95 139.797 44.87 146.497 C 34.78 153.197 28.87 161.997 28.87 174.997 L 28.87 175.097 L 26.91 245.997 L 486.9 245.997 L 486.9 240.397 C 479 216.497 471.1 189.397 461.7 168.697 C 456.9 158.197 451.7 149.497 446.5 143.897 C 441.4 138.297 436.9 135.997 431.9 135.997 L 83.87 135.997 Z M 361.9 158.997 L 419.9 158.997 C 447.9 158.997 453.1 197.497 459.9 222.997 L 361.9 222.997 L 361.9 158.997 Z M 26.41 263.997 L 25.12 309.997 L 87.69 309.997 C 95.06 305.597 103.7 302.997 112.9 302.997 C 136.5 302.997 156.2 319.797 160.9 341.997 L 327.7 341.997 C 332 319.297 352 301.997 375.9 301.997 C 385.8 301.997 395 304.997 402.7 309.997 L 486.9 309.997 L 486.9 263.997 L 26.41 263.997 Z M 375.9 319.997 C 358.7 319.997 344.9 333.797 344.9 350.997 C 344.9 368.197 358.7 381.997 375.9 381.997 C 393.1 381.997 406.9 368.197 406.9 350.997 C 406.9 333.797 393.1 319.997 375.9 319.997 Z M 112.9 320.997 C 95.64 320.997 81.87 334.797 81.87 351.997 C 81.87 369.197 95.64 382.997 112.9 382.997 C 130.1 382.997 143.9 369.197 143.9 351.997 C 143.9 334.797 130.1 320.997 112.9 320.997 Z M 27.36 327.997 C 28.6 330.297 30.26 332.597 32.28 334.597 C 36.92 339.197 43.09 341.997 48.55 341.997 L 64.9 341.997 C 65.94 336.997 67.75 332.297 70.19 327.997 L 27.36 327.997 Z M 419.1 327.997 C 421.5 332.297 423.1 336.997 424.1 341.997 L 446.4 341.997 L 486.9 328.497 L 486.9 327.997 L 419.1 327.997 Z" fill="#ffffff" fill-opacity="1"/>
  </g>
</svg>