<svg style="height: 512px; width: 512px;" viewBox="0 0 512 512" width="512" height="512" xmlns="http://www.w3.org/2000/svg"><g class="" style="" transform="translate(0,0)"><path d="M 420.944 129.413 L 420.937 129.418 C 418.123 176.47 412.338 223.295 402.094 266.125 L 402.093 266.125 C 400.55 272.759 398.931 279.083 397.239 284.995 L 397.22 285.007 C 394.997 292.959 392.609 300.752 390.032 308.345 C 385.689 321.302 380.071 335.736 372.909 350.316 C 365.446 365.569 356.989 379.552 347.408 392.031 L 347.402 392.019 C 342.342 398.627 336.856 404.965 330.912 410.88 L 330.909 410.87 L 330.906 410.875 C 310.236 431.441 283.541 449.093 253.201 456.003 C 214.433 444.706 178.569 411.557 150.099 363.973 L 150.209 363.923 L 150.094 363.938 C 139.718 346.37 130.669 326.873 122.844 305.875 C 96.016 233.886 84.337 145.193 83.53 61.063 L 243.78 61.063 L 243.78 61.062 L 423.124 61.062 C 423.037 74.68 422.761 88.431 422.254 102.229 C 421.906 112.724 421.465 122.666 420.944 129.413 Z M 460.843 23.625 L 460.843 32.97 C 460.843 135.693 454.321 239.55 425.593 323.47 C 396.864 407.39 344.49 472 255.221 491.03 L 253.001 491.53 L 250.781 490.904 C 169.395 468.539 117.668 404.192 87.031 321.124 C 56.396 238.056 45.906 135.649 45.906 32.969 L 45.906 23.625 Z M 64.717 42.312 C 65.354 140.526 76.085 237.444 104.56 314.656 C 133.646 393.522 180.28 451.188 253.56 472.218 C 334.545 454.075 380.725 396.925 407.935 317.438 C 434.563 239.655 441.647 141.113 442.06 42.313 L 64.72 42.313 Z" fill="#000000" style="fill-opacity: 1;"/></g></svg>