<svg style="height: 512px; width: 512px;" viewBox="0 0 512 512" xmlns="http://www.w3.org/2000/svg" width="512" height="512"><g class="" style="" transform="translate(0,0)"><path d="M 92.981 26.636 C 107.717 88.226 73.198 110.215 23.803 120.45 C 86.204 141.892 56.177 163.157 43.206 184.51 C 101.452 180.01 120.423 207.276 120.335 250.071 C 152.541 232.335 165.865 195.099 250.132 231.011 C 229.484 192.981 221.984 164.569 268.044 126.45 C 233.014 113.921 200.101 99.803 216.778 54.828 C 167.1 88.226 129.511 59.699 92.981 26.636 Z M 152.012 86.541 C 182.327 86.555 206.895 111.135 206.895 141.451 C 206.881 171.756 182.317 196.32 152.012 196.334 C 121.706 196.32 97.143 171.756 97.128 141.451 C 97.128 111.135 121.696 86.555 152.012 86.541 Z M 325.579 166.111 C 340.844 237.848 303.519 252.584 247.047 246.584 C 274.313 274.731 291.343 306.585 261.254 355.204 C 301.225 345.321 339.344 343.203 361.756 399.146 C 381.609 358.469 418.934 352.91 464.729 364.998 C 448.934 340.556 431.199 316.115 479.641 291.938 C 446.993 269.437 414.081 247.201 436.052 182.082 C 396.08 227.083 359.55 217.465 325.579 166.111 Z M 367.403 233.789 C 397.708 233.804 422.272 258.368 422.287 288.673 C 422.272 318.978 397.708 343.542 367.403 343.556 C 337.098 343.542 312.534 318.978 312.52 288.673 C 312.534 258.368 337.098 233.804 367.403 233.789 Z" fill="#000000" fill-opacity="1" style=""/></g><path d="M 100.712 273.094 C 115.977 344.831 78.652 359.567 22.18 353.567 C 49.446 381.714 66.476 413.568 36.387 462.187 C 76.358 452.304 114.477 450.186 136.889 506.129 C 156.742 465.452 194.067 459.893 239.862 471.981 C 224.067 447.539 206.332 423.098 254.774 398.921 C 222.126 376.42 189.214 354.184 211.185 289.065 C 171.213 334.066 134.683 324.448 100.712 273.094 Z M 142.536 340.772 C 172.841 340.787 197.405 365.351 197.42 395.656 C 197.405 425.961 172.841 450.525 142.536 450.539 C 112.231 450.525 87.667 425.961 87.653 395.656 C 87.667 365.351 112.231 340.787 142.536 340.772 Z" fill="#000000" fill-opacity="1" style="" transform="matrix(-0.587785, 0.809017, -0.809017, -0.587785, 535.07408, 506.589062)"/></svg>