<?xml version="1.0" encoding="utf-8"?>
<svg style="height: 512px; width: 512px;" viewBox="0 0 512 512" xmlns="http://www.w3.org/2000/svg" width="512" height="512">
  <g class="" style="" transform="matrix(0.876351, 0, 0, 0.876351, 60.810638, 60.959019)">
    <path d="M 441.8 79.93 L 353.9 158.3 L 343.3 119.8 L 307.3 212.8 C 307.3 212.8 348.6 201.1 369.3 195.3 L 369.3 227.9 L 491.8 148.3 L 396.7 173 L 441.8 79.93 Z M 252.6 255 L 252.6 291.6 L 306.1 347.6 L 299.5 370.6 L 356.8 427.8 L 344 440.6 L 332 428.6 L 283.8 455.9 L 275 440.3 L 318.8 415.5 L 293.8 390.5 L 287.2 413.8 L 269.8 408.8 L 285.9 352.6 L 252.6 317.7 L 252.6 493 L 490.6 493 L 490.6 255 L 348.5 255 L 367.3 299.3 L 422.1 305.5 L 461 270.6 L 473 284 L 455.8 299.5 L 468.6 337.5 L 451.6 343.3 L 441.2 312.5 L 428.1 324.3 L 375.4 318.3 L 393.8 361.6 L 370.6 392.4 L 356.2 381.6 L 373.2 359 L 343.5 289.3 L 319.1 304.4 L 309.7 289.2 L 336.3 272.7 L 336.8 273.6 L 328.9 255 L 252.6 255 Z" fill="#000000" fill-opacity="1"/>
  </g>
  <g class="" style="" transform="matrix(1.679336, 0.296112, -0.296112, 1.679336, -434.856415, -208.062195)">
    <path d="M 389.727 227.655 C 404.354 229.971 417.684 222.54 424.014 221.52 C 432.679 220.124 432.801 225.369 447.107 234.876 C 457.115 241.527 465.285 262.805 467.923 266.596 C 470.557 270.38 463.183 274.868 465.153 283.165 C 467.596 293.453 474.861 299.918 474.726 305.378 C 474.396 318.732 467.87 313.633 476.753 324.093 L 433.595 326.518 C 434.125 323.904 434.391 321.242 434.391 318.574 C 434.391 296.484 416.483 278.574 394.391 278.574 C 372.301 278.574 354.391 296.484 354.391 318.574 C 354.399 321.021 354.631 323.461 355.084 325.866 L 332.03 325.674 L 316.189 235.835 C 323.494 236.163 330.632 236.48 337.404 236.785 L 343.754 226.25 C 334.214 219 321.741 211.153 310.733 204.893 L 307.669 187.513 C 335.751 198.851 362.482 213.973 389.727 227.655 Z M 418.39 318.574 C 418.39 331.829 407.645 342.574 394.39 342.574 C 381.135 342.574 370.39 331.829 370.39 318.574 C 370.39 305.319 381.135 294.574 394.39 294.574 C 407.645 294.574 418.39 305.319 418.39 318.574 Z" fill="#000000" fill-opacity="1"/>
  </g>
</svg>